<?xml version="1.0" encoding="UTF-8"?>
<!DOCTYPE svg PUBLIC "-//W3C//DTD SVG 1.1//EN" "http://www.w3.org/Graphics/SVG/1.1/DTD/svg11.dtd">
<!-- Creator: CorelDRAW 2020 (64-Bit) -->
<svg xmlns="http://www.w3.org/2000/svg" xml:space="preserve" width="684px" height="175px" version="1.1" style="shape-rendering:geometricPrecision; text-rendering:geometricPrecision; image-rendering:optimizeQuality; fill-rule:evenodd; clip-rule:evenodd"
viewBox="0 0 731.06 186.84"
 xmlns:xlink="http://www.w3.org/1999/xlink"
 xmlns:xodm="http://www.corel.com/coreldraw/odm/2003">
 <defs>
  <style type="text/css">
   <![CDATA[
    .fil3 {fill:#C5C6C6;fill-rule:nonzero}
    .fil2 {fill:#898989;fill-rule:nonzero}
    .fil0 {fill:#727271;fill-rule:nonzero}
    .fil7 {fill:#2B2A29;fill-rule:nonzero}
    .fil6 {fill:#F6AC63;fill-rule:nonzero}
    .fil5 {fill:#EF7F1A;fill-rule:nonzero}
    .fil1 {fill:#EF7F1A;fill-rule:nonzero}
    .fil4 {fill:white;fill-rule:nonzero}
   ]]>
  </style>
 </defs>
 <g id="Слой_x0020_1">
  <metadata id="CorelCorpID_0Corel-Layer"/>
  <g id="_2137369847008">
   <path class="fil0" d="M197.93 85.52l0 -12.56 -28.35 0c-4.94,0 -9.29,-0.52 -13.03,-1.56 -3.75,-1.03 -6.7,-3.19 -8.86,-6.46 -0.4,-0.63 -0.83,-1.47 -1.31,-2.51 -0.48,-1.04 -0.92,-2.35 -1.32,-3.95 -0.4,-1.59 -0.72,-3.52 -0.96,-5.8 -0.24,-2.27 -0.35,-4.96 -0.35,-8.07 0,-6.22 0.45,-11.07 1.37,-14.54 0.92,-3.47 2.01,-6.12 3.29,-7.95 1.2,-1.76 2.57,-3.15 4.13,-4.19 1.55,-1.03 3.27,-1.83 5.14,-2.39 1.88,-0.56 3.89,-0.9 6.04,-1.02 2.16,-0.12 4.39,-0.18 6.7,-0.18l26.2 0 0 -12.56 -33.62 0c-1.51,0 -3.38,0.08 -5.62,0.24 -2.23,0.16 -4.62,0.6 -7.17,1.32 -2.56,0.72 -5.11,1.77 -7.66,3.17 -2.55,1.39 -4.87,3.33 -6.94,5.8 -1.75,2.07 -3.17,4.37 -4.25,6.88 -1.07,2.51 -1.89,5.18 -2.45,8.01 -0.56,2.83 -0.94,5.74 -1.13,8.73 -0.2,3 -0.3,5.97 -0.3,8.92 0,2.31 0.08,4.8 0.24,7.47 0.16,2.68 0.52,5.37 1.07,8.08 0.56,2.71 1.4,5.38 2.52,8.01 1.11,2.63 2.67,5.07 4.66,7.3 1.91,2.15 4.01,3.89 6.28,5.2 2.27,1.32 4.59,2.32 6.94,2.99 2.35,0.68 4.68,1.12 7,1.32 2.31,0.2 4.46,0.3 6.46,0.3l35.28 0z"/>
   <path id="1" class="fil0" d="M210.64 85.52l14 0 0 -52.64 16.39 0c1.35,0 2.99,0.18 4.9,0.54 1.91,0.36 3.67,1.42 5.26,3.17 0.72,0.8 1.28,1.7 1.68,2.7 0.4,0.99 0.72,1.99 0.96,2.99 0.24,0.99 0.37,1.95 0.41,2.87 0.04,0.91 0.06,1.69 0.06,2.33l0 38.04 14 0 0 -41.75c0,-4.39 -0.7,-7.97 -2.09,-10.77 -1.4,-2.79 -2.97,-4.9 -4.73,-6.33 -2.31,-1.84 -4.96,-3.06 -7.95,-3.65 -2.99,-0.6 -6.28,-0.9 -9.87,-0.9l-19.02 0 0 -20.34 -14 0 0 83.74z"/>
   <path id="2" class="fil0" d="M339.62 85.52l0 -10.77 -30.98 0c-1.27,0 -2.57,-0.08 -3.89,-0.24 -1.31,-0.16 -2.57,-0.5 -3.76,-1.01 -1.2,-0.52 -2.24,-1.28 -3.11,-2.28 -0.88,-0.99 -1.56,-2.33 -2.04,-4 -0.24,-0.96 -0.44,-2.32 -0.6,-4.07 -0.16,-1.76 -0.23,-3.31 -0.23,-4.67l36.84 0c1.27,0 2.49,-0.16 3.65,-0.47 1.15,-0.32 2.21,-0.96 3.17,-1.92 1.35,-1.35 2.19,-2.89 2.51,-4.6 0.32,-1.72 0.48,-3.37 0.48,-4.97 0,-1.99 -0.12,-3.97 -0.36,-5.92 -0.24,-1.95 -0.7,-3.83 -1.38,-5.62 -0.67,-1.8 -1.59,-3.45 -2.75,-4.97 -1.15,-1.51 -2.65,-2.87 -4.48,-4.06 -2.96,-1.84 -6.25,-2.97 -9.87,-3.41 -3.63,-0.44 -7.32,-0.66 -11.07,-0.66 -1.51,0 -3.27,0.04 -5.26,0.12 -2,0.08 -4.07,0.3 -6.22,0.66 -2.16,0.36 -4.29,0.93 -6.4,1.73 -2.12,0.8 -4.05,1.96 -5.8,3.47 -1.76,1.52 -3.13,3.19 -4.13,5.02 -1,1.84 -1.75,3.85 -2.27,6.05 -0.52,2.19 -0.84,4.58 -0.96,7.17 -0.12,2.6 -0.18,5.37 -0.18,8.32 0,4.22 0.24,8.37 0.72,12.44 0.48,4.06 1.75,7.61 3.83,10.64 1.27,1.84 2.71,3.29 4.3,4.37 1.6,1.08 3.23,1.89 4.91,2.45 1.67,0.56 3.39,0.9 5.14,1.02 1.75,0.12 3.43,0.18 5.03,0.18l35.16 0zm-44.61 -37.8c0.07,-2.07 0.21,-4.01 0.41,-5.8 0.2,-1.8 1.02,-3.49 2.46,-5.09 0.95,-1.03 2.01,-1.85 3.17,-2.45 1.15,-0.6 2.33,-1.02 3.52,-1.26 1.2,-0.24 2.36,-0.38 3.47,-0.41 1.12,-0.04 2.16,-0.06 3.11,-0.06 2,0 4.05,0.14 6.16,0.41 2.12,0.28 4.05,1.1 5.81,2.46 1.03,0.79 1.97,1.91 2.81,3.35 0.83,1.43 1.25,3.15 1.25,5.14 0,0.88 -0.18,1.71 -0.54,2.51 -0.35,0.8 -1.21,1.2 -2.57,1.2l-29.06 0z"/>
   <path id="3" class="fil1" d="M407.36 85.52l0 -10.77 -22.73 0c-1.44,0 -2.93,-0.06 -4.49,-0.18 -1.55,-0.12 -3.05,-0.42 -4.48,-0.89 -1.44,-0.48 -2.75,-1.16 -3.95,-2.04 -1.2,-0.87 -2.19,-2.07 -2.99,-3.59 -0.4,-0.79 -0.74,-1.77 -1.02,-2.93 -0.28,-1.15 -0.5,-2.33 -0.65,-3.53 -0.16,-1.19 -0.26,-2.37 -0.3,-3.52 -0.04,-1.16 -0.06,-2.22 -0.06,-3.17 0,-0.48 0.02,-1.22 0.06,-2.22 0.04,-0.99 0.08,-2.07 0.12,-3.23 0.04,-1.15 0.14,-2.31 0.3,-3.47 0.15,-1.15 0.35,-2.17 0.59,-3.05 0.8,-2.71 2.42,-5.06 4.85,-7.05 2.43,-2 6,-3 10.7,-3l22.61 0 0 -10.76 -27.15 0c-2.87,0 -5.36,0.24 -7.48,0.72 -2.11,0.47 -3.95,1.05 -5.5,1.73 -1.56,0.68 -2.85,1.42 -3.89,2.21 -1.04,0.8 -1.87,1.52 -2.51,2.16 -1.76,1.83 -3.11,3.85 -4.07,6.04 -0.95,2.19 -1.67,4.42 -2.15,6.7 -0.48,2.27 -0.76,4.52 -0.84,6.76 -0.08,2.23 -0.12,4.3 -0.12,6.22 0,4.54 0.3,8.75 0.9,12.62 0.6,3.86 2.21,7.35 4.84,10.46 1.44,1.68 3.01,3.03 4.73,4.07 1.71,1.04 3.41,1.83 5.08,2.39 1.68,0.56 3.31,0.92 4.91,1.08 1.59,0.16 2.99,0.24 4.18,0.24l30.51 0z"/>
   <path id="4" class="fil1" d="M480.71 85.52l-25.95 -27.4c-0.8,-0.87 -1.5,-1.81 -2.1,-2.81 -0.6,-0.99 -0.89,-2.01 -0.89,-3.05 0,-1.03 0.19,-1.89 0.59,-2.57 0.4,-0.68 0.88,-1.33 1.44,-1.97l23.8 -25.6 -16.26 0 -19.14 21.05c-0.88,1.04 -1.84,2.3 -2.87,3.77 -1.04,1.48 -1.56,3.41 -1.56,5.8 0,2.24 0.5,4.15 1.5,5.74 0.99,1.6 1.93,2.88 2.81,3.83l21.89 23.21 16.74 0zm-47.13 0l0 -83.74 -13.99 0 0 83.74 13.99 0z"/>
   <path id="5" class="fil1" d="M196.98 185.06l0 -12.56 -44.74 0c-1.28,0 -2.37,-0.06 -3.29,-0.18 -0.92,-0.12 -1.62,-0.42 -2.09,-0.9 -0.8,-0.63 -1.2,-1.71 -1.2,-3.23l0 -19.61 49.64 0 0 -12.56 -49.64 0 0 -16.87c0,-0.64 0.06,-1.32 0.18,-2.03 0.12,-0.72 0.5,-1.4 1.14,-2.04 0.63,-0.56 1.33,-0.9 2.09,-1.01 0.76,-0.12 1.49,-0.18 2.21,-0.18l45.22 0 0 -12.56 -53.71 0c-1.6,0 -3.33,0.16 -5.21,0.47 -1.87,0.32 -3.48,1.24 -4.84,2.76 -0.88,1.03 -1.58,2.33 -2.09,3.88 -0.52,1.56 -0.78,3.17 -0.78,4.85l0 59.33c0,1.6 0.16,3.29 0.48,5.08 0.32,1.8 1.19,3.37 2.63,4.73 1.35,1.35 2.83,2.13 4.42,2.33 1.6,0.2 3.31,0.3 5.15,0.3l54.43 0z"/>
   <path id="6" class="fil1" d="M204.51 185.06l40.55 0c1.6,0 3.29,-0.14 5.09,-0.42 1.79,-0.28 3.49,-1.01 5.08,-2.21 1.28,-0.96 2.28,-2.03 2.99,-3.23 0.72,-1.2 1.26,-2.43 1.62,-3.71 0.36,-1.27 0.58,-2.49 0.66,-3.65 0.08,-1.15 0.12,-2.13 0.12,-2.93 0,-1.75 -0.22,-3.67 -0.66,-5.74 -0.44,-2.07 -1.54,-4.03 -3.29,-5.86 -1.6,-1.68 -3.67,-3.01 -6.22,-4.01 -2.55,-1 -5.74,-2.05 -9.57,-3.17l-13.64 -3.83c-0.4,-0.08 -0.96,-0.24 -1.67,-0.47 -0.72,-0.24 -1.46,-0.5 -2.22,-0.78 -0.75,-0.28 -1.49,-0.58 -2.21,-0.9 -0.72,-0.32 -1.32,-0.68 -1.79,-1.08 -0.96,-0.79 -1.54,-1.59 -1.74,-2.39 -0.2,-0.8 -0.3,-1.63 -0.3,-2.51 0,-0.88 0.08,-1.7 0.24,-2.45 0.16,-0.76 0.68,-1.46 1.56,-2.1 0.79,-0.63 1.61,-0.99 2.45,-1.07 0.84,-0.08 1.65,-0.12 2.45,-0.12l33.62 0 0 -10.77 -35.77 0c-1.36,0 -2.73,0.04 -4.13,0.12 -1.39,0.08 -2.75,0.3 -4.07,0.66 -1.31,0.36 -2.57,0.92 -3.76,1.67 -1.2,0.76 -2.28,1.78 -3.23,3.05 -1.28,1.76 -2.1,3.59 -2.46,5.51 -0.35,1.91 -0.53,3.66 -0.53,5.26 0,1.59 0.18,3.35 0.53,5.26 0.36,1.92 1.18,3.75 2.46,5.51 1.27,1.75 3.07,3.25 5.38,4.48 2.31,1.24 5.14,2.29 8.49,3.17l12.2 3.35c2.24,0.64 4.03,1.16 5.39,1.56 1.35,0.4 2.45,0.75 3.29,1.07 0.83,0.32 1.45,0.58 1.85,0.78 0.4,0.2 0.72,0.42 0.96,0.66 0.8,0.72 1.29,1.47 1.49,2.27 0.2,0.8 0.3,1.64 0.3,2.51 0,0.48 -0.04,1.1 -0.12,1.86 -0.08,0.75 -0.44,1.45 -1.07,2.09 -0.64,0.8 -1.4,1.3 -2.28,1.5 -0.87,0.2 -1.67,0.3 -2.39,0.3l-35.65 0 0 10.76z"/>
   <path id="7" class="fil1" d="M304.52 185.06l0 -10.76 -3.47 0c-1.28,0 -3.01,-0.12 -5.21,-0.36 -2.19,-0.24 -4.08,-1.04 -5.68,-2.4 -1.03,-0.79 -1.81,-1.77 -2.33,-2.93 -0.52,-1.15 -0.88,-2.33 -1.08,-3.53 -0.2,-1.19 -0.3,-2.39 -0.3,-3.59 0,-1.27 0,-2.47 0,-3.58l0 -25.48 17.71 0 0 -10.77 -17.71 0 0 -20.33 -13.99 0 0 20.33 -8.73 0 0 10.77 8.73 0 0 31.94c0,4.06 0.54,7.33 1.61,9.81 1.08,2.47 2.65,4.54 4.73,6.22 1.99,1.59 4.25,2.77 6.76,3.52 2.51,0.76 5.92,1.14 10.22,1.14l8.74 0z"/>
   <path id="8" class="fil1" d="M312.29 121.66l0 10.77 31.22 0c1.12,0 2.3,0.16 3.53,0.48 1.24,0.32 2.34,1.07 3.29,2.27 0.8,0.96 1.3,1.95 1.5,2.99 0.2,1.04 0.3,2.03 0.3,2.99l0 4.43 -27.52 0c-1.67,0 -3.53,0.18 -5.56,0.53 -2.03,0.36 -4.05,1.42 -6.04,3.17 -2.39,2.08 -3.89,4.47 -4.49,7.18 -0.59,2.71 -0.89,5.46 -0.89,8.26 0,1.19 0.04,2.55 0.12,4.06 0.08,1.52 0.3,3.07 0.66,4.67 0.35,1.59 0.91,3.13 1.67,4.6 0.76,1.48 1.77,2.77 3.05,3.89 1.83,1.6 3.77,2.51 5.8,2.75 2.03,0.24 3.93,0.36 5.68,0.36l30.27 0c1.51,0 3.07,-0.14 4.66,-0.42 1.6,-0.28 2.95,-0.98 4.07,-2.09 1.12,-1.12 1.81,-2.47 2.09,-4.07 0.28,-1.59 0.42,-2.95 0.42,-4.07l0 -32.89c0,-3.59 -0.44,-6.64 -1.31,-9.15 -0.88,-2.51 -2,-4.45 -3.35,-5.8 -1.44,-1.52 -3.31,-2.72 -5.62,-3.59 -2.32,-0.88 -4.83,-1.32 -7.54,-1.32l-36.01 0zm39.84 34.69l0 14.6c0,0.47 -0.04,0.93 -0.12,1.37 -0.08,0.44 -0.36,0.86 -0.84,1.26 -0.48,0.4 -1.02,0.62 -1.61,0.65 -0.6,0.05 -1.1,0.07 -1.5,0.07l-19.5 0c-0.88,0 -1.73,-0.2 -2.57,-0.6 -0.84,-0.4 -1.5,-0.84 -1.97,-1.32 -0.88,-0.88 -1.42,-2.03 -1.62,-3.47 -0.2,-1.43 -0.3,-2.63 -0.3,-3.59 0,-2.31 0.2,-3.94 0.6,-4.9 0.4,-0.96 0.72,-1.6 0.96,-1.91 0.79,-1.04 1.73,-1.66 2.81,-1.86 1.07,-0.2 1.85,-0.3 2.33,-0.3l23.33 0z"/>
   <path id="9" class="fil1" d="M411.7 185.06l0 -10.76 -3.47 0c-1.28,0 -3.01,-0.12 -5.2,-0.36 -2.2,-0.24 -4.09,-1.04 -5.69,-2.4 -1.03,-0.79 -1.81,-1.77 -2.33,-2.93 -0.52,-1.15 -0.88,-2.33 -1.08,-3.53 -0.2,-1.19 -0.29,-2.39 -0.29,-3.59 0,-1.27 0,-2.47 0,-3.58l0 -25.48 17.7 0 0 -10.77 -17.7 0 0 -20.33 -14 0 0 20.33 -8.73 0 0 10.77 8.73 0 0 31.94c0,4.06 0.54,7.33 1.61,9.81 1.08,2.47 2.66,4.54 4.73,6.22 1.99,1.59 4.25,2.77 6.76,3.52 2.51,0.76 5.92,1.14 10.23,1.14l8.73 0z"/>
   <path id="10" class="fil1" d="M473.9 185.06l0 -10.76 -30.98 0c-1.28,0 -2.57,-0.08 -3.89,-0.24 -1.31,-0.16 -2.57,-0.5 -3.77,-1.02 -1.19,-0.52 -2.23,-1.28 -3.11,-2.27 -0.87,-1 -1.55,-2.34 -2.03,-4.01 -0.24,-0.96 -0.44,-2.31 -0.6,-4.07 -0.16,-1.75 -0.24,-3.31 -0.24,-4.66l36.85 0c1.27,0 2.49,-0.16 3.64,-0.48 1.16,-0.32 2.22,-0.96 3.18,-1.92 1.35,-1.35 2.19,-2.89 2.51,-4.6 0.32,-1.72 0.48,-3.37 0.48,-4.97 0,-1.99 -0.12,-3.96 -0.36,-5.92 -0.24,-1.95 -0.7,-3.82 -1.38,-5.62 -0.68,-1.79 -1.59,-3.45 -2.75,-4.96 -1.16,-1.52 -2.65,-2.87 -4.49,-4.07 -2.95,-1.83 -6.24,-2.97 -9.87,-3.41 -3.62,-0.44 -7.31,-0.66 -11.06,-0.66 -1.51,0 -3.27,0.04 -5.26,0.12 -2,0.08 -4.07,0.3 -6.22,0.66 -2.16,0.36 -4.29,0.94 -6.4,1.73 -2.12,0.8 -4.05,1.96 -5.8,3.47 -1.76,1.52 -3.14,3.19 -4.13,5.03 -1,1.83 -1.76,3.85 -2.27,6.04 -0.52,2.19 -0.84,4.58 -0.96,7.18 -0.12,2.59 -0.18,5.36 -0.18,8.31 0,4.23 0.24,8.37 0.72,12.44 0.47,4.07 1.75,7.62 3.82,10.65 1.28,1.83 2.72,3.29 4.31,4.36 1.6,1.08 3.23,1.9 4.91,2.45 1.67,0.56 3.38,0.9 5.14,1.02 1.75,0.12 3.43,0.18 5.02,0.18l35.17 0zm-44.62 -37.8c0.08,-2.07 0.22,-4.01 0.42,-5.8 0.2,-1.8 1.02,-3.49 2.45,-5.09 0.96,-1.03 2.02,-1.85 3.17,-2.45 1.16,-0.6 2.34,-1.01 3.53,-1.25 1.2,-0.24 2.36,-0.38 3.47,-0.42 1.12,-0.04 2.15,-0.06 3.11,-0.06 2,0 4.05,0.14 6.16,0.42 2.12,0.28 4.05,1.09 5.8,2.45 1.04,0.8 1.98,1.91 2.82,3.35 0.83,1.43 1.25,3.15 1.25,5.14 0,0.88 -0.18,1.72 -0.54,2.51 -0.36,0.8 -1.21,1.2 -2.57,1.2l-29.07 0z"/>
   <g>
    <g>
     <g>
      <path class="fil2" d="M43.11 154.89l0 -126.96 3.12 1.64 0 126.95 -0.82 0.95 -2.3 -2.58zm2.3 2.58l-2.3 0.02 0 -2.6 2.3 2.58zm59.04 -0.5l-59.04 0.5 -1.47 -3.53 59.04 -0.5 2.29 2.58 -0.82 0.95zm0.82 -0.95l0 0.94 -0.82 0.01 0.82 -0.95zm0 -127.03l0 127.03 -3.12 -1.63 0 -127.03 0.83 -0.95 2.29 2.58zm-2.29 -2.58l2.29 -0.02 0 2.6 -2.29 -2.58zm-59.04 0.58l59.04 -0.58 1.47 3.53 -59.04 0.57 -2.3 -2.58 0.83 -0.94zm-0.83 0.94l0 -0.93 0.83 -0.01 -0.83 0.94z"/>
      <polygon id="1" class="fil3" points="44.67,28.75 44.67,155.71 103.71,155.2 103.71,28.18 "/>
     </g>
     <polygon class="fil4" points="96.82,103.04 96.82,81.33 86.99,81.53 86.99,103.24 "/>
     <polygon class="fil4" points="96.82,136.92 96.82,115.21 86.99,115.41 86.99,137.12 "/>
     <polygon class="fil4" points="96.82,69.67 96.82,47.96 86.99,48.15 86.99,69.87 "/>
     <polygon class="fil4" points="80.46,103.11 80.46,81.4 70.64,81.6 70.64,103.31 "/>
     <polygon class="fil4" points="80.46,137 80.46,115.29 70.64,115.49 70.64,137.2 "/>
     <polygon class="fil4" points="80.46,69.74 80.46,48.03 70.64,48.23 70.64,69.94 "/>
     <polygon class="fil4" points="63.45,103.43 63.45,81.72 53.62,81.92 53.62,103.63 "/>
     <polygon class="fil4" points="63.45,137.32 63.45,115.61 53.62,115.81 53.62,137.52 "/>
     <polygon class="fil4" points="63.45,70.06 63.45,48.35 53.62,48.55 53.62,70.26 "/>
    </g>
    <g>
     <g>
      <path class="fil2" d="M39.44 158.56l0 -126.96 3.12 1.64 0 126.95 -0.82 0.95 -2.3 -2.58zm2.3 2.58l-2.3 0.01 0 -2.59 2.3 2.58zm59.04 -0.5l-59.04 0.5 -1.47 -3.53 59.04 -0.5 2.3 2.58 -0.83 0.95zm0.83 -0.95l0 0.94 -0.83 0.01 0.83 -0.95zm0 -127.03l0 127.03 -3.13 -1.63 0 -127.03 0.83 -0.95 2.3 2.58zm-2.3 -2.58l2.3 -0.02 0 2.6 -2.3 -2.58zm-59.04 0.58l59.04 -0.58 1.47 3.52 -59.04 0.58 -2.3 -2.58 0.83 -0.94zm-0.83 0.94l0 -0.94 0.83 0 -0.83 0.94z"/>
      <polygon id="1" class="fil3" points="41,32.42 41,159.37 100.04,158.87 100.04,31.84 "/>
     </g>
     <polygon class="fil4" points="93.15,106.71 93.15,85 83.32,85.2 83.32,106.91 "/>
     <polygon class="fil4" points="93.15,140.59 93.15,118.88 83.32,119.08 83.32,140.79 "/>
     <polygon class="fil4" points="93.15,73.33 93.15,51.62 83.32,51.82 83.32,73.53 "/>
     <polygon class="fil4" points="76.79,106.78 76.79,85.07 66.97,85.27 66.97,106.98 "/>
     <polygon class="fil4" points="76.79,140.67 76.79,118.96 66.97,119.16 66.97,140.87 "/>
     <polygon class="fil4" points="76.79,73.41 76.79,51.7 66.97,51.9 66.97,73.61 "/>
     <polygon class="fil4" points="59.78,107.1 59.78,85.39 49.95,85.59 49.95,107.3 "/>
     <polygon class="fil4" points="59.78,140.98 59.78,119.27 49.95,119.47 49.95,141.18 "/>
     <polygon class="fil4" points="59.78,73.73 59.78,52.02 49.95,52.22 49.95,73.93 "/>
    </g>
    <g id="_2137370634432">
     <g>
      <path class="fil2" d="M35.78 162.22l0 -126.95 3.12 1.64 0 126.95 -0.83 0.94 -2.29 -2.58zm2.29 2.58l-2.29 0.02 0 -2.6 2.29 2.58zm59.04 -0.5l-59.04 0.5 -1.47 -3.52 59.04 -0.5 2.3 2.58 -0.83 0.94zm0.83 -0.94l0 0.94 -0.83 0 0.83 -0.94zm0 -127.03l0 127.03 -3.12 -1.64 0 -127.03 0.82 -0.94 2.3 2.58zm-2.3 -2.58l2.3 -0.02 0 2.6 -2.3 -2.58zm-59.04 0.58l59.04 -0.58 1.47 3.52 -59.04 0.58 -2.29 -2.58 0.82 -0.94zm-0.82 0.94l0 -0.94 0.82 0 -0.82 0.94z"/>
      <polygon id="1" class="fil3" points="37.34,36.09 37.34,163.04 96.38,162.54 96.38,35.51 "/>
     </g>
     <polygon class="fil4" points="89.48,110.37 89.48,88.66 79.65,88.86 79.65,110.57 "/>
     <polygon class="fil4" points="89.48,144.26 89.48,122.55 79.65,122.75 79.65,144.46 "/>
     <polygon class="fil4" points="89.48,77 89.48,55.29 79.65,55.49 79.65,77.2 "/>
     <polygon class="fil4" points="73.13,110.45 73.13,88.74 63.3,88.94 63.3,110.65 "/>
     <polygon class="fil4" points="73.13,144.33 73.13,122.62 63.3,122.83 63.3,144.53 "/>
     <polygon class="fil4" points="73.13,77.08 73.13,55.37 63.3,55.57 63.3,77.28 "/>
     <polygon class="fil4" points="56.11,110.77 56.11,89.06 46.28,89.26 46.28,110.97 "/>
     <polygon class="fil4" points="56.11,144.65 56.11,122.94 46.28,123.14 46.28,144.85 "/>
     <polygon class="fil4" points="56.11,77.4 56.11,55.69 46.28,55.89 46.28,77.6 "/>
    </g>
    <g>
     <g>
      <path class="fil2" d="M32.11 165.89l0 -126.95 3.12 1.63 0 126.96 -0.83 0.94 -2.29 -2.58zm2.29 2.58l-2.29 0.02 0 -2.6 2.29 2.58zm59.04 -0.5l-59.04 0.5 -1.47 -3.52 59.04 -0.5 2.3 2.58 -0.83 0.94zm0.83 -0.94l0 0.93 -0.83 0.01 0.83 -0.94zm0 -127.03l0 127.03 -3.12 -1.64 0 -127.03 0.82 -0.94 2.3 2.58zm-2.3 -2.58l2.3 -0.02 0 2.6 -2.3 -2.58zm-59.04 0.58l59.04 -0.58 1.47 3.52 -59.04 0.58 -2.29 -2.58 0.82 -0.94zm-0.82 0.94l0 -0.94 0.82 0 -0.82 0.94z"/>
      <polygon id="1" class="fil3" points="33.67,39.76 33.67,166.71 92.71,166.21 92.71,39.18 "/>
     </g>
     <polygon class="fil4" points="85.81,114.04 85.81,92.33 75.99,92.53 75.99,114.24 "/>
     <polygon class="fil4" points="85.81,147.93 85.81,126.22 75.99,126.42 75.99,148.13 "/>
     <polygon class="fil4" points="85.81,80.67 85.81,58.96 75.99,59.16 75.99,80.87 "/>
     <polygon class="fil4" points="69.46,114.12 69.46,92.41 59.63,92.61 59.63,114.32 "/>
     <polygon class="fil4" points="69.46,148 69.46,126.29 59.63,126.49 59.63,148.2 "/>
     <polygon class="fil4" points="69.46,80.75 69.46,59.04 59.63,59.24 59.63,80.95 "/>
     <polygon class="fil4" points="52.44,114.44 52.44,92.73 42.62,92.93 42.62,114.64 "/>
     <polygon class="fil4" points="52.44,148.32 52.44,126.61 42.62,126.81 42.62,148.52 "/>
     <polygon class="fil4" points="52.44,81.07 52.44,59.36 42.62,59.56 42.62,81.27 "/>
    </g>
    <g>
     <g>
      <path class="fil5" d="M0 128.5l0 -126.96 3.12 1.64 0 126.95 -0.83 0.95 -2.29 -2.58zm2.29 2.58l-2.29 0.01 0 -2.59 2.29 2.58zm59.04 -0.5l-59.04 0.5 -1.46 -3.53 59.04 -0.5 2.29 2.58 -0.83 0.95zm0.83 -0.95l0 0.94 -0.83 0.01 0.83 -0.95zm0 -127.03l0 127.03 -3.12 -1.63 0 -127.03 0.83 -0.95 2.29 2.58zm-2.29 -2.58l2.29 -0.02 0 2.6 -2.29 -2.58zm-59.04 0.58l59.04 -0.58 1.47 3.52 -59.04 0.58 -2.3 -2.58 0.83 -0.94zm-0.83 0.94l0 -0.94 0.83 0 -0.83 0.94z"/>
      <polygon id="1" class="fil6" points="1.56,2.36 1.56,129.31 60.6,128.81 60.6,1.78 "/>
     </g>
     <polygon class="fil4" points="53.71,76.65 53.71,54.94 43.88,55.14 43.88,76.85 "/>
     <polygon class="fil4" points="53.71,110.53 53.71,88.82 43.88,89.02 43.88,110.73 "/>
     <polygon class="fil4" points="53.71,43.27 53.71,21.57 43.88,21.76 43.88,43.48 "/>
     <polygon class="fil4" points="37.35,76.72 37.35,55.01 27.52,55.21 27.52,76.92 "/>
     <polygon class="fil4" points="37.35,110.61 37.35,88.9 27.52,89.1 27.52,110.81 "/>
     <polygon class="fil4" points="37.35,43.35 37.35,21.64 27.52,21.84 27.52,43.55 "/>
     <polygon class="fil4" points="20.34,77.04 20.34,55.33 10.51,55.53 10.51,77.24 "/>
     <polygon class="fil4" points="20.34,110.92 20.34,89.21 10.51,89.41 10.51,111.12 "/>
     <polygon class="fil4" points="20.34,43.67 20.34,21.96 10.51,22.16 10.51,43.87 "/>
    </g>
    <g>
     <g>
      <path class="fil2" d="M28.44 169.56l0 -126.95 3.12 1.63 0 126.96 -0.83 0.94 -2.29 -2.58zm2.29 2.58l-2.29 0.02 0 -2.6 2.29 2.58zm59.04 -0.5l-59.04 0.5 -1.46 -3.52 59.04 -0.5 2.29 2.58 -0.83 0.94zm0.83 -0.94l0 0.93 -0.83 0.01 0.83 -0.94zm0 -127.03l0 127.03 -3.12 -1.64 0 -127.03 0.82 -0.94 2.3 2.58zm-2.3 -2.58l2.3 -0.02 0 2.6 -2.3 -2.58zm-59.04 0.57l59.04 -0.57 1.47 3.52 -59.04 0.58 -2.29 -2.58 0.82 -0.95zm-0.82 0.95l0 -0.94 0.82 -0.01 -0.82 0.95z"/>
      <polygon id="1" class="fil3" points="30,43.42 30,170.38 89.04,169.88 89.04,42.85 "/>
     </g>
     <polygon class="fil4" points="82.15,117.71 82.15,96 72.32,96.2 72.32,117.91 "/>
     <polygon class="fil4" points="82.15,151.6 82.15,129.89 72.32,130.09 72.32,151.79 "/>
     <polygon class="fil4" points="82.15,84.34 82.15,62.63 72.32,62.83 72.32,84.54 "/>
     <polygon class="fil4" points="65.79,117.79 65.79,96.08 55.96,96.28 55.96,117.99 "/>
     <polygon class="fil4" points="65.79,151.67 65.79,129.96 55.96,130.16 55.96,151.87 "/>
     <polygon class="fil4" points="65.79,84.42 65.79,62.71 55.96,62.91 55.96,84.62 "/>
     <polygon class="fil4" points="48.77,118.11 48.77,96.4 38.95,96.6 38.95,118.31 "/>
     <polygon class="fil4" points="48.77,151.99 48.77,130.28 38.95,130.48 38.95,152.19 "/>
     <polygon class="fil4" points="48.77,84.73 48.77,63.03 38.95,63.23 38.95,84.94 "/>
    </g>
    <g>
     <g>
      <path class="fil2" d="M24.77 173.23l0 -126.95 3.12 1.63 0 126.96 -0.83 0.94 -2.29 -2.58zm2.29 2.58l-2.29 0.02 0 -2.6 2.29 2.58zm59.04 -0.5l-59.04 0.5 -1.46 -3.52 59.04 -0.5 2.29 2.58 -0.83 0.94zm0.83 -0.94l0 0.93 -0.83 0.01 0.83 -0.94zm0 -127.03l0 127.03 -3.12 -1.64 0 -127.03 0.83 -0.94 2.29 2.58zm-2.29 -2.58l2.29 -0.03 0 2.61 -2.29 -2.58zm-59.04 0.57l59.04 -0.57 1.47 3.52 -59.04 0.57 -2.3 -2.57 0.83 -0.95zm-0.83 0.95l0 -0.94 0.83 -0.01 -0.83 0.95z"/>
      <polygon id="1" class="fil3" points="26.33,47.09 26.33,174.05 85.37,173.55 85.37,46.52 "/>
     </g>
     <polygon class="fil4" points="78.48,121.38 78.48,99.67 68.65,99.87 68.65,121.58 "/>
     <polygon class="fil4" points="78.48,155.27 78.48,133.56 68.65,133.76 68.65,155.46 "/>
     <polygon class="fil4" points="78.48,88.01 78.48,66.3 68.65,66.5 68.65,88.21 "/>
     <polygon class="fil4" points="62.12,121.46 62.12,99.75 52.29,99.95 52.29,121.66 "/>
     <polygon class="fil4" points="62.12,155.34 62.12,133.63 52.29,133.83 52.29,155.54 "/>
     <polygon class="fil4" points="62.12,88.09 62.12,66.38 52.29,66.58 52.29,88.29 "/>
     <polygon class="fil4" points="45.11,121.77 45.11,100.07 35.28,100.27 35.28,121.97 "/>
     <polygon class="fil4" points="45.11,155.66 45.11,133.95 35.28,134.15 35.28,155.86 "/>
     <polygon class="fil4" points="45.11,88.4 45.11,66.69 35.28,66.89 35.28,88.61 "/>
    </g>
    <g>
     <g>
      <path class="fil2" d="M21.1 176.9l0 -126.96 3.12 1.64 0 126.96 -0.82 0.94 -2.3 -2.58zm2.3 2.58l-2.3 0.02 0 -2.6 2.3 2.58zm59.04 -0.5l-59.04 0.5 -1.47 -3.52 59.04 -0.5 2.29 2.58 -0.82 0.94zm0.82 -0.94l0 0.93 -0.82 0.01 0.82 -0.94zm0 -127.03l0 127.03 -3.12 -1.64 0 -127.03 0.83 -0.94 2.29 2.58zm-2.29 -2.58l2.29 -0.03 0 2.61 -2.29 -2.58zm-59.04 0.57l59.04 -0.57 1.47 3.52 -59.04 0.57 -2.3 -2.58 0.83 -0.94zm-0.83 0.94l0 -0.93 0.83 -0.01 -0.83 0.94z"/>
      <polygon id="1" class="fil3" points="22.66,50.76 22.66,177.72 81.7,177.22 81.7,50.19 "/>
     </g>
     <polygon class="fil4" points="74.81,125.05 74.81,103.34 64.98,103.54 64.98,125.25 "/>
     <polygon class="fil4" points="74.81,158.93 74.81,137.22 64.98,137.42 64.98,159.13 "/>
     <polygon class="fil4" points="74.81,91.68 74.81,69.97 64.98,70.17 64.98,91.88 "/>
     <polygon class="fil4" points="58.45,125.13 58.45,103.42 48.63,103.62 48.63,125.33 "/>
     <polygon class="fil4" points="58.45,159.01 58.45,137.3 48.63,137.5 48.63,159.21 "/>
     <polygon class="fil4" points="58.45,91.76 58.45,70.05 48.63,70.25 48.63,91.95 "/>
     <polygon class="fil4" points="41.44,125.44 41.44,103.73 31.61,103.94 31.61,125.64 "/>
     <polygon class="fil4" points="41.44,159.33 41.44,137.62 31.61,137.82 31.61,159.53 "/>
     <polygon class="fil4" points="41.44,92.07 41.44,70.36 31.61,70.56 31.61,92.27 "/>
    </g>
    <g>
     <g>
      <path class="fil2" d="M17.43 180.57l0 -126.96 3.12 1.64 0 126.96 -0.82 0.94 -2.3 -2.58zm2.3 2.58l-2.3 0.02 0 -2.6 2.3 2.58zm59.04 -0.5l-59.04 0.5 -1.47 -3.52 59.04 -0.5 2.29 2.57 -0.82 0.95zm0.82 -0.95l0 0.94 -0.82 0.01 0.82 -0.95zm0 -127.03l0 127.03 -3.12 -1.63 0 -127.03 0.83 -0.94 2.29 2.57zm-2.29 -2.57l2.29 -0.03 0 2.6 -2.29 -2.57zm-59.04 0.57l59.04 -0.57 1.47 3.52 -59.04 0.57 -2.3 -2.58 0.83 -0.94zm-0.83 0.94l0 -0.93 0.83 -0.01 -0.83 0.94z"/>
      <polygon id="1" class="fil3" points="18.99,54.43 18.99,181.39 78.03,180.89 78.03,53.86 "/>
     </g>
     <polygon class="fil4" points="71.14,128.72 71.14,107.01 61.31,107.21 61.31,128.92 "/>
     <polygon class="fil4" points="71.14,162.6 71.14,140.89 61.31,141.09 61.31,162.8 "/>
     <polygon class="fil4" points="71.14,95.35 71.14,73.64 61.31,73.84 61.31,95.55 "/>
     <polygon class="fil4" points="54.78,128.8 54.78,107.09 44.96,107.29 44.96,128.99 "/>
     <polygon class="fil4" points="54.78,162.68 54.78,140.97 44.96,141.17 44.96,162.88 "/>
     <polygon class="fil4" points="54.78,95.42 54.78,73.72 44.96,73.91 44.96,95.62 "/>
     <polygon class="fil4" points="37.77,129.11 37.77,107.4 27.94,107.6 27.94,129.31 "/>
     <polygon class="fil4" points="37.77,163 37.77,141.29 27.94,141.49 27.94,163.2 "/>
     <polygon class="fil4" points="37.77,95.74 37.77,74.03 27.94,74.23 27.94,95.94 "/>
    </g>
    <g>
     <g>
      <path class="fil2" d="M13.76 184.24l0 -126.96 3.13 1.64 0 126.95 -0.83 0.95 -2.3 -2.58zm2.3 2.58l-2.3 0.02 0 -2.6 2.3 2.58zm59.04 -0.5l-59.04 0.5 -1.47 -3.53 59.04 -0.49 2.3 2.57 -0.83 0.95zm0.83 -0.95l0 0.94 -0.83 0.01 0.83 -0.95zm0 -127.03l0 127.03 -3.12 -1.63 0 -127.03 0.82 -0.95 2.3 2.58zm-2.3 -2.58l2.3 -0.02 0 2.6 -2.3 -2.58zm-59.04 0.58l59.04 -0.58 1.47 3.53 -59.04 0.57 -2.3 -2.58 0.83 -0.94zm-0.83 0.94l0 -0.93 0.83 -0.01 -0.83 0.94z"/>
      <polygon id="1" class="fil3" points="15.33,58.1 15.33,185.06 74.37,184.56 74.37,57.53 "/>
     </g>
     <polygon class="fil4" points="67.47,132.39 67.47,110.68 57.64,110.88 57.64,132.59 "/>
     <polygon class="fil4" points="67.47,166.27 67.47,144.56 57.64,144.76 57.64,166.47 "/>
     <polygon class="fil4" points="67.47,99.02 67.47,77.31 57.64,77.51 57.64,99.22 "/>
     <polygon class="fil4" points="51.11,132.46 51.11,110.75 41.29,110.95 41.29,132.66 "/>
     <polygon class="fil4" points="51.11,166.35 51.11,144.64 41.29,144.84 41.29,166.55 "/>
     <polygon class="fil4" points="51.11,99.09 51.11,77.38 41.29,77.58 41.29,99.29 "/>
     <polygon class="fil4" points="34.1,132.78 34.1,111.07 24.27,111.27 24.27,132.98 "/>
     <polygon class="fil4" points="34.1,166.67 34.1,144.96 24.27,145.16 24.27,166.87 "/>
     <polygon class="fil4" points="34.1,99.41 34.1,77.7 24.27,77.9 24.27,99.61 "/>
    </g>
   </g>
  </g>
  <path class="fil7" d="M514.75 12.05c-0.67,0 -1.38,0.01 -2.14,0.03 -0.76,0.02 -1.52,0.11 -2.29,0.25 -0.77,0.15 -1.52,0.37 -2.26,0.69 -0.74,0.31 -1.41,0.76 -2.01,1.34 -0.6,0.56 -1.07,1.2 -1.4,1.91 -0.34,0.72 -0.58,1.47 -0.75,2.25 -0.17,0.78 -0.27,1.57 -0.31,2.37 -0.04,0.8 -0.06,1.57 -0.06,2.32 0,0.62 0.01,1.32 0.04,2.09 0.03,0.77 0.13,1.55 0.28,2.35 0.16,0.8 0.41,1.59 0.75,2.36 0.34,0.77 0.83,1.45 1.45,2.05 0.6,0.59 1.27,1.03 2.01,1.34 0.74,0.32 1.5,0.54 2.28,0.69 0.78,0.15 1.54,0.23 2.3,0.25 0.76,0.02 1.46,0.03 2.11,0.03 0.62,0 1.32,-0.01 2.09,-0.03 0.76,-0.02 1.54,-0.1 2.32,-0.25 0.78,-0.15 1.54,-0.37 2.27,-0.69 0.74,-0.31 1.41,-0.75 2.01,-1.34 0.57,-0.54 1.01,-1.17 1.34,-1.9 0.34,-0.73 0.59,-1.48 0.75,-2.27 0.17,-0.79 0.28,-1.59 0.33,-2.39 0.05,-0.8 0.08,-1.56 0.08,-2.29 0,-0.71 -0.02,-1.47 -0.06,-2.28 -0.05,-0.81 -0.15,-1.61 -0.33,-2.4 -0.18,-0.79 -0.43,-1.54 -0.77,-2.27 -0.33,-0.73 -0.77,-1.36 -1.34,-1.9 -0.6,-0.58 -1.27,-1.03 -2.01,-1.34 -0.73,-0.32 -1.49,-0.54 -2.27,-0.69 -0.78,-0.14 -1.55,-0.23 -2.31,-0.25 -0.76,-0.02 -1.46,-0.03 -2.1,-0.03zm-6.99 11.16c0,-1.68 0.12,-2.99 0.36,-3.91 0.24,-0.93 0.57,-1.66 0.98,-2.2 0.65,-0.79 1.46,-1.28 2.44,-1.48 0.97,-0.2 2.03,-0.3 3.18,-0.3 1.12,0 2.18,0.1 3.18,0.3 0.99,0.2 1.81,0.69 2.46,1.48 0.16,0.21 0.33,0.47 0.5,0.78 0.16,0.31 0.31,0.71 0.43,1.18 0.13,0.48 0.23,1.06 0.3,1.73 0.07,0.68 0.11,1.48 0.11,2.42 0,0.87 -0.04,1.64 -0.11,2.31 -0.07,0.66 -0.17,1.23 -0.3,1.71 -0.12,0.48 -0.26,0.88 -0.42,1.22 -0.15,0.33 -0.32,0.61 -0.51,0.84 -0.33,0.42 -0.71,0.74 -1.12,0.98 -0.42,0.24 -0.87,0.42 -1.36,0.55 -0.49,0.12 -1,0.2 -1.53,0.23 -0.53,0.03 -1.07,0.05 -1.63,0.05 -0.57,0 -1.12,-0.02 -1.66,-0.05 -0.54,-0.03 -1.05,-0.11 -1.52,-0.23 -0.48,-0.13 -0.93,-0.31 -1.34,-0.55 -0.42,-0.24 -0.78,-0.56 -1.1,-0.98 -0.18,-0.23 -0.35,-0.51 -0.51,-0.83 -0.16,-0.32 -0.3,-0.72 -0.42,-1.21 -0.13,-0.49 -0.22,-1.06 -0.3,-1.72 -0.07,-0.65 -0.11,-1.43 -0.11,-2.32z"/>
  <polygon id="1" class="fil7" points="536.35,34.12 536.35,19.09 542.58,19.09 542.58,17.6 528.49,17.6 528.49,19.09 534.73,19.09 534.73,34.12 "/>
  <path id="2" class="fil7" d="M558.17 34.12l-8.07 -7.6c-0.11,-0.11 -0.22,-0.25 -0.33,-0.43 -0.12,-0.17 -0.17,-0.33 -0.17,-0.48 0,-0.21 0.09,-0.41 0.26,-0.61 0.18,-0.19 0.32,-0.35 0.42,-0.45l7.36 -6.95 -2.21 0 -6.3 5.86c-0.27,0.25 -0.55,0.57 -0.84,0.97 -0.29,0.39 -0.44,0.79 -0.44,1.18 0,0.25 0.07,0.54 0.22,0.87 0.14,0.34 0.42,0.7 0.84,1.09l6.95 6.55 2.31 0zm-11.1 0l0 -16.52 -1.62 0 0 16.52 1.62 0z"/>
  <path id="3" class="fil7" d="M562.66 34.12l4.67 0c0.52,0 1.06,-0.03 1.61,-0.08 0.55,-0.05 1.08,-0.16 1.59,-0.32 0.51,-0.17 0.99,-0.41 1.45,-0.74 0.45,-0.32 0.86,-0.76 1.21,-1.32 0.59,-0.87 0.94,-1.84 1.08,-2.9 0.13,-1.06 0.2,-2.11 0.2,-3.15 0,-0.48 -0.01,-0.98 -0.04,-1.51 -0.04,-0.53 -0.1,-1.07 -0.21,-1.61 -0.1,-0.54 -0.27,-1.06 -0.51,-1.57 -0.24,-0.51 -0.56,-0.98 -0.95,-1.42 -0.21,-0.21 -0.46,-0.43 -0.75,-0.65 -0.29,-0.23 -0.64,-0.44 -1.04,-0.63 -0.41,-0.18 -0.87,-0.33 -1.39,-0.45 -0.52,-0.11 -1.1,-0.17 -1.75,-0.17l-4.18 0c-0.22,0 -0.51,0.03 -0.85,0.08 -0.35,0.05 -0.67,0.19 -0.98,0.42 -0.13,0.1 -0.29,0.28 -0.49,0.53 -0.19,0.25 -0.29,0.59 -0.29,1.03l0 19.76 1.62 0 0 -5.3zm0 -1.5l0 -12.72c0,-0.1 0.01,-0.2 0.04,-0.29 0.04,-0.09 0.1,-0.19 0.21,-0.3 0.06,-0.04 0.14,-0.09 0.23,-0.14 0.09,-0.05 0.18,-0.08 0.26,-0.08l4.78 0c0.76,0 1.52,0.19 2.26,0.55 0.73,0.36 1.31,0.98 1.72,1.85 0.3,0.63 0.47,1.34 0.53,2.11 0.07,0.76 0.1,1.51 0.1,2.23 0,0.89 -0.05,1.77 -0.16,2.64 -0.1,0.87 -0.37,1.63 -0.81,2.29 -0.25,0.37 -0.53,0.68 -0.85,0.92 -0.33,0.24 -0.66,0.42 -1,0.57 -0.35,0.15 -0.69,0.24 -1.03,0.3 -0.34,0.05 -0.66,0.07 -0.95,0.07l-5.33 0z"/>
  <path id="4" class="fil7" d="M587.53 34.12c0.56,0 1.1,-0.03 1.62,-0.09 0.52,-0.06 1,-0.31 1.44,-0.72 0.27,-0.27 0.49,-0.6 0.65,-0.96 0.17,-0.37 0.29,-0.74 0.38,-1.13 0.08,-0.39 0.13,-0.76 0.15,-1.11 0.02,-0.36 0.03,-0.67 0.03,-0.91 0,-0.55 -0.06,-1.16 -0.18,-1.84 -0.13,-0.68 -0.45,-1.27 -0.97,-1.78 -0.46,-0.43 -0.95,-0.71 -1.48,-0.81 -0.53,-0.11 -0.97,-0.16 -1.33,-0.16l-7.63 0 0 -7.01 -1.62 0 0 14.62c0,0.27 0.01,0.54 0.04,0.81 0.03,0.27 0.15,0.51 0.36,0.72 0.19,0.18 0.41,0.29 0.66,0.32 0.25,0.04 0.48,0.05 0.71,0.05l7.17 0zm-7.32 -8.01l7.63 0c0.21,0 0.47,0.04 0.78,0.11 0.32,0.07 0.61,0.27 0.88,0.61 0.27,0.35 0.43,0.75 0.48,1.21 0.05,0.46 0.08,0.83 0.08,1.12 0,0.82 -0.05,1.42 -0.16,1.81 -0.1,0.4 -0.23,0.69 -0.37,0.87 -0.25,0.36 -0.53,0.58 -0.83,0.66 -0.3,0.08 -0.59,0.12 -0.86,0.12l-6.85 0c-0.11,0 -0.23,0 -0.36,-0.01 -0.14,-0.01 -0.25,-0.08 -0.33,-0.2 -0.04,-0.07 -0.07,-0.19 -0.08,-0.36 -0.01,-0.18 -0.01,-0.31 -0.01,-0.39l0 -5.55zm13.46 8.01l1.63 0 0 -16.52 -1.63 0 0 16.52z"/>
  <polygon id="5" class="fil7" points="606.02,34.12 606.02,19.09 612.25,19.09 612.25,17.6 598.16,17.6 598.16,19.09 604.4,19.09 604.4,34.12 "/>
  <path id="6" class="fil7" d="M615.74 17.6l0 1.49 8.01 0c0.4,0 0.75,0.08 1.05,0.22 0.3,0.14 0.53,0.32 0.7,0.52 0.21,0.25 0.36,0.57 0.47,0.96 0.1,0.39 0.15,0.72 0.15,0.99l0 2.43 -7.17 0c-0.48,0 -1,0.05 -1.56,0.15 -0.56,0.11 -1.07,0.35 -1.52,0.73 -0.61,0.49 -0.99,1.1 -1.14,1.83 -0.16,0.71 -0.24,1.4 -0.24,2.07 0,0.25 0.01,0.57 0.04,0.95 0.02,0.39 0.08,0.79 0.18,1.19 0.11,0.41 0.25,0.82 0.44,1.22 0.19,0.41 0.46,0.75 0.82,1.02 0.45,0.36 0.95,0.57 1.48,0.64 0.53,0.07 1.04,0.11 1.51,0.11l6.38 0c0.29,0 0.61,-0.02 0.96,-0.06 0.36,-0.04 0.66,-0.18 0.91,-0.41 0.27,-0.25 0.43,-0.54 0.49,-0.87 0.05,-0.33 0.07,-0.61 0.07,-0.84l0 -9.88c0,-0.5 -0.05,-1.06 -0.17,-1.67 -0.12,-0.61 -0.4,-1.16 -0.84,-1.64 -0.34,-0.35 -0.77,-0.63 -1.29,-0.84 -0.52,-0.21 -1.06,-0.31 -1.62,-0.31l-8.11 0zm10.35 8.1l0 6.18c0,0.1 -0.01,0.19 -0.03,0.28 -0.02,0.08 -0.08,0.17 -0.19,0.28 -0.1,0.1 -0.22,0.16 -0.36,0.17 -0.13,0.01 -0.25,0.01 -0.35,0.01l-6.64 0c-0.36,0 -0.67,-0.06 -0.96,-0.2 -0.28,-0.13 -0.5,-0.31 -0.67,-0.51 -0.29,-0.35 -0.47,-0.79 -0.54,-1.32 -0.07,-0.53 -0.11,-1.04 -0.11,-1.54 0,-0.57 0.04,-1.08 0.11,-1.5 0.07,-0.42 0.21,-0.77 0.42,-1.04 0.12,-0.17 0.34,-0.34 0.64,-0.53 0.3,-0.18 0.69,-0.28 1.17,-0.28l7.51 0z"/>
  <path id="7" class="fil7" d="M631.86 34.12l2.18 0 6.26 -5.98c0.17,-0.17 0.28,-0.34 0.35,-0.53 0.06,-0.19 0.09,-0.36 0.09,-0.53 0,-0.42 -0.14,-0.68 -0.42,-0.78 -0.28,-0.11 -0.56,-0.16 -0.83,-0.16l-3.05 0c-0.38,0 -0.73,-0.06 -1.08,-0.17 -0.34,-0.12 -0.64,-0.4 -0.89,-0.85 -0.14,-0.27 -0.24,-0.61 -0.31,-1.02 -0.06,-0.41 -0.09,-0.97 -0.09,-1.67 0,-0.41 0.02,-0.84 0.06,-1.29 0.04,-0.46 0.18,-0.86 0.41,-1.21 0.23,-0.35 0.47,-0.58 0.74,-0.68 0.27,-0.1 0.56,-0.16 0.85,-0.16l6.64 0c0.18,0 0.37,0.01 0.56,0.02 0.18,0.01 0.34,0.09 0.47,0.23 0.1,0.13 0.16,0.28 0.17,0.47 0.01,0.19 0.01,0.35 0.01,0.47l0 13.84 1.62 0 0 -14c0,-0.33 -0.02,-0.68 -0.06,-1.06 -0.04,-0.37 -0.21,-0.69 -0.5,-0.96 -0.25,-0.23 -0.54,-0.37 -0.89,-0.42 -0.34,-0.05 -0.68,-0.08 -1.01,-0.08l-6.98 0c-0.58,0 -1.11,0.1 -1.59,0.31 -0.48,0.21 -0.86,0.47 -1.15,0.78 -0.48,0.52 -0.78,1.13 -0.91,1.82 -0.12,0.7 -0.19,1.36 -0.19,1.98 0,0.56 0.04,1.18 0.13,1.86 0.08,0.67 0.32,1.29 0.72,1.85 0.45,0.65 0.96,1.05 1.52,1.2 0.56,0.16 1.11,0.24 1.66,0.24l1.77 0c0.04,0 0.09,0 0.16,0.01 0.06,0.01 0.09,0.07 0.09,0.17 0,0.07 -0.03,0.12 -0.08,0.18 -0.05,0.05 -0.12,0.11 -0.2,0.2l-6.23 5.92z"/>
  <path id="8" class="fil7" d="M541.34 71.81l0 -1.5 -8.11 0c-0.54,0 -1.02,-0.09 -1.43,-0.26 -0.42,-0.18 -0.78,-0.4 -1.08,-0.67 -0.3,-0.27 -0.55,-0.57 -0.75,-0.91 -0.19,-0.34 -0.33,-0.68 -0.42,-1.01 -0.12,-0.44 -0.21,-0.98 -0.25,-1.65 -0.04,-0.66 -0.05,-1.22 -0.03,-1.7l10.07 0c0.23,0 0.52,-0.03 0.86,-0.08 0.34,-0.05 0.64,-0.19 0.89,-0.42 0.29,-0.27 0.47,-0.6 0.56,-1 0.08,-0.39 0.12,-0.76 0.12,-1.09 0,-1.33 -0.26,-2.42 -0.78,-3.29 -0.52,-0.86 -1.14,-1.51 -1.87,-1.95 -0.66,-0.39 -1.38,-0.64 -2.16,-0.76 -0.78,-0.11 -1.46,-0.17 -2.05,-0.17 -0.83,0 -1.71,0.09 -2.65,0.26 -0.93,0.18 -1.77,0.58 -2.52,1.2 -0.52,0.44 -0.93,0.94 -1.23,1.49 -0.3,0.55 -0.53,1.12 -0.67,1.73 -0.15,0.6 -0.23,1.21 -0.27,1.84 -0.03,0.62 -0.04,1.22 -0.04,1.8 0,1.23 0.06,2.35 0.18,3.35 0.13,1.01 0.51,1.93 1.16,2.76 0.66,0.86 1.38,1.41 2.16,1.66 0.78,0.24 1.52,0.37 2.2,0.37l8.11 0zm-12.07 -9.2c0.02,-0.78 0.07,-1.47 0.16,-2.08 0.08,-0.6 0.29,-1.17 0.62,-1.71 0.29,-0.47 0.62,-0.84 0.97,-1.11 0.35,-0.27 0.73,-0.46 1.14,-0.59 0.4,-0.12 0.81,-0.2 1.23,-0.23 0.41,-0.03 0.83,-0.04 1.24,-0.04 0.38,0 0.75,0.01 1.13,0.03 0.37,0.02 0.74,0.07 1.12,0.17 0.37,0.09 0.73,0.23 1.07,0.41 0.35,0.19 0.66,0.46 0.95,0.8 0.25,0.31 0.46,0.64 0.61,0.98 0.16,0.33 0.27,0.66 0.35,0.97 0.07,0.3 0.12,0.58 0.14,0.83 0.02,0.25 0.03,0.43 0.03,0.56 0,0.06 0,0.15 0,0.27 0,0.1 -0.02,0.21 -0.06,0.33 -0.05,0.11 -0.11,0.21 -0.21,0.29 -0.09,0.08 -0.23,0.12 -0.42,0.12l-10.07 0z"/>
  <path id="9" class="fil7" d="M547.51 71.81l0 -13.84c0,-0.11 0,-0.26 0.01,-0.45 0.01,-0.2 0.07,-0.36 0.17,-0.49 0.13,-0.16 0.36,-0.25 0.69,-0.25l9.91 0 0 -1.49 -10.53 0c-0.29,0 -0.59,0.04 -0.89,0.14 -0.3,0.09 -0.55,0.3 -0.73,0.64 -0.15,0.23 -0.23,0.48 -0.24,0.78 -0.01,0.29 -0.01,0.56 -0.01,0.81l0 14.15 1.62 0z"/>
  <path id="10" class="fil7" d="M574.97 71.81l0 -14.81c0,-0.12 -0.01,-0.29 -0.03,-0.5 -0.02,-0.2 -0.08,-0.41 -0.17,-0.62 -0.1,-0.21 -0.24,-0.39 -0.42,-0.55 -0.19,-0.15 -0.46,-0.23 -0.81,-0.23 -0.73,0 -1.3,0.33 -1.72,1l-8.51 13.56c-0.14,0.27 -0.26,0.4 -0.34,0.4 -0.11,0 -0.16,-0.04 -0.17,-0.14 -0.01,-0.09 -0.02,-0.18 -0.02,-0.26l0 -14.37 -1.62 0 0 14.99c0,0.54 0.13,0.96 0.39,1.26 0.26,0.31 0.63,0.46 1.11,0.46 0.41,0 0.74,-0.1 0.99,-0.28 0.25,-0.19 0.51,-0.49 0.78,-0.91l8.42 -13.37c0.1,-0.17 0.18,-0.27 0.23,-0.31 0.06,-0.05 0.09,-0.07 0.11,-0.07 0.11,0 0.16,0.05 0.16,0.13 0,0.06 0,0.14 0,0.25l0 14.37 1.62 0z"/>
  <path id="11" class="fil7" d="M587.25 55.1c-0.52,0 -1.05,0.02 -1.6,0.06 -0.55,0.04 -1.1,0.13 -1.63,0.25 -0.53,0.13 -1.04,0.31 -1.54,0.55 -0.5,0.24 -0.94,0.55 -1.34,0.95 -0.46,0.43 -0.82,0.94 -1.09,1.51 -0.27,0.57 -0.48,1.16 -0.62,1.76 -0.15,0.6 -0.24,1.21 -0.28,1.81 -0.05,0.6 -0.07,1.15 -0.07,1.65 0,0.48 0.02,1 0.05,1.56 0.03,0.56 0.12,1.13 0.27,1.7 0.14,0.57 0.35,1.14 0.62,1.7 0.27,0.56 0.64,1.07 1.12,1.53 0.46,0.43 0.96,0.78 1.51,1.02 0.55,0.25 1.1,0.44 1.65,0.57 0.56,0.12 1.09,0.2 1.61,0.23 0.52,0.03 0.97,0.05 1.34,0.05 0.37,0 0.82,-0.02 1.33,-0.05 0.5,-0.03 1.04,-0.11 1.6,-0.23 0.56,-0.13 1.12,-0.32 1.67,-0.57 0.55,-0.24 1.05,-0.59 1.51,-1.02 0.52,-0.52 0.99,-1.32 1.42,-2.39 0.43,-1.07 0.64,-2.5 0.64,-4.29 0,-0.45 -0.02,-0.97 -0.06,-1.54 -0.05,-0.57 -0.14,-1.15 -0.28,-1.74 -0.15,-0.6 -0.36,-1.18 -0.63,-1.75 -0.27,-0.57 -0.63,-1.08 -1.09,-1.51 -0.42,-0.4 -0.87,-0.71 -1.36,-0.95 -0.48,-0.24 -0.99,-0.42 -1.52,-0.55 -0.53,-0.12 -1.07,-0.21 -1.62,-0.25 -0.55,-0.04 -1.09,-0.06 -1.61,-0.06zm-6.42 8.51c0,-0.35 0,-0.77 0.01,-1.26 0.01,-0.48 0.06,-0.98 0.14,-1.49 0.09,-0.5 0.22,-1 0.39,-1.47 0.18,-0.48 0.44,-0.9 0.77,-1.27 0.31,-0.35 0.68,-0.63 1.1,-0.83 0.43,-0.19 0.88,-0.34 1.35,-0.44 0.46,-0.11 0.93,-0.18 1.38,-0.21 0.46,-0.03 0.89,-0.04 1.28,-0.04 0.4,0 0.82,0.01 1.28,0.04 0.46,0.03 0.92,0.1 1.39,0.21 0.46,0.1 0.91,0.25 1.34,0.44 0.42,0.2 0.79,0.48 1.1,0.83 0.34,0.37 0.59,0.79 0.77,1.27 0.17,0.47 0.3,0.97 0.39,1.47 0.08,0.51 0.13,1.01 0.14,1.49 0.01,0.49 0.01,0.91 0.01,1.26 0,0.33 0,0.72 -0.01,1.18 -0.01,0.46 -0.06,0.92 -0.14,1.41 -0.09,0.49 -0.22,0.97 -0.41,1.44 -0.19,0.48 -0.45,0.91 -0.78,1.28 -0.33,0.35 -0.7,0.63 -1.1,0.85 -0.41,0.22 -0.84,0.38 -1.3,0.48 -0.46,0.1 -0.91,0.17 -1.37,0.2 -0.46,0.03 -0.89,0.05 -1.31,0.05 -0.42,0 -0.85,-0.02 -1.31,-0.05 -0.46,-0.03 -0.91,-0.1 -1.37,-0.2 -0.46,-0.1 -0.89,-0.26 -1.29,-0.48 -0.41,-0.22 -0.78,-0.5 -1.11,-0.85 -0.35,-0.37 -0.62,-0.8 -0.8,-1.28 -0.17,-0.47 -0.3,-0.95 -0.39,-1.44 -0.08,-0.49 -0.13,-0.95 -0.14,-1.41 -0.01,-0.46 -0.01,-0.85 -0.01,-1.18z"/>
  <polygon id="12" class="fil7" points="612.69,71.81 612.69,55.29 611.06,55.29 611.06,62.52 601.15,62.52 601.15,55.29 599.53,55.29 599.53,71.81 601.15,71.81 601.15,64.02 611.06,64.02 611.06,71.81 "/>
  <path id="13" class="fil7" d="M618.05 55.29l0 1.49 8.01 0c0.39,0 0.74,0.08 1.04,0.22 0.3,0.14 0.54,0.32 0.7,0.52 0.21,0.25 0.37,0.57 0.47,0.96 0.11,0.39 0.16,0.71 0.16,0.98l0 2.44 -7.17 0c-0.48,0 -1,0.05 -1.56,0.15 -0.56,0.11 -1.07,0.34 -1.53,0.72 -0.6,0.5 -0.98,1.11 -1.14,1.83 -0.15,0.72 -0.23,1.41 -0.23,2.08 0,0.25 0.01,0.57 0.03,0.95 0.02,0.39 0.08,0.79 0.19,1.19 0.1,0.41 0.25,0.82 0.43,1.22 0.19,0.41 0.47,0.75 0.82,1.02 0.46,0.35 0.95,0.57 1.48,0.64 0.54,0.07 1.04,0.11 1.52,0.11l6.37 0c0.29,0 0.62,-0.02 0.97,-0.06 0.35,-0.04 0.66,-0.18 0.91,-0.41 0.27,-0.25 0.43,-0.54 0.48,-0.87 0.05,-0.33 0.08,-0.61 0.08,-0.84l0 -9.89c0,-0.49 -0.06,-1.05 -0.18,-1.66 -0.11,-0.62 -0.39,-1.16 -0.84,-1.64 -0.34,-0.35 -0.77,-0.63 -1.29,-0.84 -0.52,-0.21 -1.06,-0.31 -1.62,-0.31l-8.1 0zm10.35 8.1l0 6.18c0,0.1 -0.01,0.19 -0.04,0.27 -0.02,0.09 -0.08,0.18 -0.18,0.29 -0.11,0.1 -0.23,0.16 -0.36,0.17 -0.14,0.01 -0.26,0.01 -0.36,0.01l-6.64 0c-0.35,0 -0.67,-0.06 -0.95,-0.2 -0.28,-0.14 -0.5,-0.31 -0.67,-0.51 -0.29,-0.35 -0.47,-0.79 -0.55,-1.32 -0.07,-0.53 -0.1,-1.04 -0.1,-1.54 0,-0.57 0.03,-1.08 0.1,-1.5 0.08,-0.42 0.22,-0.77 0.42,-1.04 0.13,-0.17 0.34,-0.34 0.64,-0.53 0.31,-0.18 0.7,-0.28 1.17,-0.28l7.52 0z"/>
  <path id="14" class="fil7" d="M632.91 71.81l1.81 0 5.71 -14.47c0.04,-0.1 0.08,-0.21 0.12,-0.32 0.04,-0.12 0.1,-0.17 0.19,-0.17 0.08,0 0.14,0.05 0.19,0.17 0.04,0.11 0.08,0.22 0.12,0.32l5.7 14.47 1.81 0 -6.2 -15.4c-0.25,-0.6 -0.54,-0.97 -0.87,-1.11 -0.34,-0.13 -0.59,-0.2 -0.75,-0.2 -0.17,0 -0.42,0.07 -0.75,0.2 -0.33,0.14 -0.62,0.51 -0.87,1.11l-6.21 15.4z"/>
  <path id="15" class="fil7" d="M660.38 71.81c0.56,0 1.1,-0.03 1.62,-0.09 0.52,-0.07 1,-0.31 1.43,-0.73 0.27,-0.27 0.49,-0.59 0.66,-0.95 0.16,-0.37 0.29,-0.75 0.37,-1.14 0.08,-0.38 0.14,-0.75 0.16,-1.11 0.02,-0.35 0.03,-0.66 0.03,-0.91 0,-0.54 -0.06,-1.15 -0.19,-1.84 -0.12,-0.67 -0.45,-1.26 -0.97,-1.77 -0.45,-0.43 -0.95,-0.71 -1.48,-0.81 -0.53,-0.11 -0.97,-0.16 -1.32,-0.16l-7.64 0 0 -7.01 -1.62 0 0 14.62c0,0.27 0.02,0.54 0.05,0.81 0.03,0.27 0.15,0.51 0.36,0.72 0.18,0.18 0.4,0.29 0.65,0.32 0.25,0.03 0.49,0.05 0.72,0.05l7.17 0zm-7.33 -8.01l7.64 0c0.21,0 0.47,0.03 0.78,0.11 0.31,0.07 0.6,0.27 0.87,0.61 0.27,0.35 0.43,0.75 0.48,1.21 0.06,0.46 0.08,0.83 0.08,1.12 0,0.81 -0.05,1.42 -0.15,1.81 -0.11,0.4 -0.23,0.69 -0.38,0.87 -0.25,0.36 -0.52,0.57 -0.82,0.66 -0.31,0.08 -0.59,0.12 -0.86,0.12l-6.86 0c-0.1,0 -0.22,0 -0.36,-0.01 -0.13,-0.01 -0.24,-0.08 -0.33,-0.21 -0.04,-0.06 -0.06,-0.18 -0.07,-0.35 -0.01,-0.18 -0.02,-0.31 -0.02,-0.39l0 -5.55z"/>
  <polygon id="16" class="fil7" points="681.92,71.81 681.92,55.29 680.29,55.29 680.29,62.52 670.38,62.52 670.38,55.29 668.76,55.29 668.76,71.81 670.38,71.81 670.38,64.02 680.29,64.02 680.29,71.81 "/>
  <path id="17" class="fil7" d="M687.28 55.29l0 1.49 8.01 0c0.39,0 0.74,0.08 1.04,0.22 0.3,0.14 0.54,0.32 0.7,0.52 0.21,0.25 0.37,0.57 0.47,0.96 0.11,0.39 0.16,0.71 0.16,0.98l0 2.44 -7.17 0c-0.48,0 -1,0.05 -1.56,0.15 -0.56,0.11 -1.07,0.34 -1.53,0.72 -0.6,0.5 -0.98,1.11 -1.14,1.83 -0.15,0.72 -0.23,1.41 -0.23,2.08 0,0.25 0.01,0.57 0.03,0.95 0.02,0.39 0.08,0.79 0.19,1.19 0.1,0.41 0.25,0.82 0.43,1.22 0.19,0.41 0.47,0.75 0.82,1.02 0.46,0.35 0.95,0.57 1.48,0.64 0.54,0.07 1.04,0.11 1.52,0.11l6.37 0c0.29,0 0.62,-0.02 0.97,-0.06 0.35,-0.04 0.66,-0.18 0.91,-0.41 0.27,-0.25 0.43,-0.54 0.48,-0.87 0.05,-0.33 0.08,-0.61 0.08,-0.84l0 -9.89c0,-0.49 -0.06,-1.05 -0.18,-1.66 -0.11,-0.62 -0.39,-1.16 -0.84,-1.64 -0.34,-0.35 -0.77,-0.63 -1.29,-0.84 -0.52,-0.21 -1.06,-0.31 -1.62,-0.31l-8.1 0zm10.35 8.1l0 6.18c0,0.1 -0.01,0.19 -0.04,0.27 -0.02,0.09 -0.08,0.18 -0.18,0.29 -0.11,0.1 -0.23,0.16 -0.36,0.17 -0.14,0.01 -0.26,0.01 -0.36,0.01l-6.64 0c-0.35,0 -0.67,-0.06 -0.95,-0.2 -0.28,-0.14 -0.5,-0.31 -0.67,-0.51 -0.29,-0.35 -0.47,-0.79 -0.55,-1.32 -0.07,-0.53 -0.1,-1.04 -0.1,-1.54 0,-0.57 0.03,-1.08 0.1,-1.5 0.08,-0.42 0.22,-0.77 0.42,-1.04 0.13,-0.17 0.34,-0.34 0.64,-0.53 0.31,-0.18 0.7,-0.28 1.17,-0.28l7.52 0z"/>
  <path id="18" class="fil7" d="M703.39 71.81l2.18 0 6.27 -5.98c0.17,-0.17 0.28,-0.34 0.34,-0.53 0.06,-0.19 0.1,-0.36 0.1,-0.53 0,-0.42 -0.15,-0.68 -0.43,-0.79 -0.28,-0.1 -0.55,-0.15 -0.82,-0.15l-3.06 0c-0.37,0 -0.73,-0.06 -1.07,-0.17 -0.35,-0.12 -0.64,-0.4 -0.89,-0.85 -0.15,-0.27 -0.25,-0.61 -0.31,-1.02 -0.06,-0.41 -0.1,-0.97 -0.1,-1.67 0,-0.41 0.03,-0.84 0.07,-1.29 0.04,-0.46 0.17,-0.86 0.4,-1.21 0.23,-0.35 0.48,-0.58 0.75,-0.68 0.27,-0.1 0.55,-0.16 0.84,-0.16l6.64 0c0.19,0 0.38,0.01 0.56,0.02 0.19,0.01 0.35,0.09 0.47,0.23 0.1,0.13 0.16,0.28 0.17,0.47 0.01,0.19 0.02,0.34 0.02,0.47l0 13.84 1.62 0 0 -14c0,-0.33 -0.02,-0.68 -0.06,-1.06 -0.04,-0.37 -0.21,-0.69 -0.5,-0.96 -0.25,-0.23 -0.55,-0.37 -0.89,-0.42 -0.34,-0.06 -0.68,-0.08 -1.01,-0.08l-6.99 0c-0.58,0 -1.11,0.1 -1.59,0.31 -0.47,0.21 -0.86,0.47 -1.15,0.78 -0.48,0.52 -0.78,1.13 -0.9,1.82 -0.13,0.7 -0.19,1.36 -0.19,1.98 0,0.56 0.04,1.18 0.12,1.86 0.09,0.67 0.33,1.29 0.72,1.85 0.46,0.65 0.97,1.05 1.53,1.2 0.56,0.16 1.11,0.24 1.65,0.24l1.78 0c0.04,0 0.09,0 0.15,0.01 0.06,0.01 0.1,0.07 0.1,0.17 0,0.06 -0.03,0.12 -0.08,0.17 -0.05,0.06 -0.12,0.12 -0.2,0.21l-6.24 5.92z"/>
  <path id="19" class="fil7" d="M508.26 71.81l0 -7.73 10.23 0c0.64,0 1.26,-0.1 1.84,-0.28 0.58,-0.19 1.08,-0.45 1.49,-0.78 0.44,-0.36 0.78,-0.78 1.03,-1.28 0.25,-0.5 0.44,-1.02 0.56,-1.57 0.13,-0.55 0.21,-1.11 0.25,-1.66 0.04,-0.55 0.06,-1.04 0.06,-1.48 0,-0.45 -0.01,-0.94 -0.04,-1.46 -0.03,-0.52 -0.11,-1.04 -0.22,-1.56 -0.11,-0.52 -0.28,-1.01 -0.5,-1.48 -0.22,-0.47 -0.51,-0.88 -0.89,-1.23 -0.33,-0.34 -0.69,-0.59 -1.07,-0.77 -0.39,-0.17 -0.77,-0.3 -1.16,-0.39 -0.38,-0.08 -0.75,-0.13 -1.12,-0.14 -0.36,-0.01 -0.69,-0.01 -0.98,-0.01l-10.38 0c-0.37,0 -0.79,0.05 -1.25,0.15 -0.46,0.11 -0.86,0.34 -1.21,0.69 -0.38,0.37 -0.6,0.77 -0.66,1.18 -0.06,0.42 -0.09,0.84 -0.09,1.25l0 18.55 4.11 0zm0 -11l0 -6.24c0,-0.19 0.01,-0.37 0.03,-0.55 0.02,-0.17 0.11,-0.33 0.25,-0.48 0.17,-0.16 0.34,-0.25 0.5,-0.26 0.17,-0.01 0.32,-0.02 0.47,-0.02l6.64 0c0.35,0 0.78,0.04 1.28,0.11 0.5,0.07 0.92,0.29 1.28,0.64 0.35,0.35 0.57,0.82 0.65,1.4 0.08,0.58 0.13,1.11 0.13,1.59 0,0.21 -0.01,0.45 -0.02,0.72 -0.01,0.27 -0.04,0.54 -0.09,0.81 -0.05,0.27 -0.13,0.53 -0.22,0.79 -0.09,0.26 -0.22,0.49 -0.39,0.67 -0.36,0.42 -0.78,0.66 -1.26,0.72 -0.49,0.06 -0.96,0.1 -1.42,0.1l-7.83 0z"/>
  <path id="20" class="fil7" d="M528.68 92.98l0 1.49 8.01 0c0.4,0 0.74,0.07 1.05,0.21 0.3,0.15 0.53,0.33 0.7,0.53 0.2,0.25 0.36,0.57 0.46,0.96 0.11,0.39 0.16,0.71 0.16,0.98l0 2.43 -7.17 0c-0.48,0 -1,0.06 -1.56,0.16 -0.56,0.1 -1.07,0.34 -1.53,0.72 -0.6,0.5 -0.98,1.11 -1.13,1.83 -0.16,0.72 -0.24,1.41 -0.24,2.08 0,0.25 0.01,0.57 0.03,0.95 0.03,0.39 0.09,0.78 0.19,1.19 0.11,0.41 0.25,0.82 0.44,1.22 0.19,0.41 0.46,0.74 0.81,1.02 0.46,0.35 0.95,0.57 1.48,0.64 0.54,0.07 1.04,0.11 1.52,0.11l6.38 0c0.29,0 0.61,-0.02 0.96,-0.06 0.36,-0.05 0.66,-0.18 0.91,-0.41 0.27,-0.25 0.43,-0.54 0.49,-0.87 0.05,-0.34 0.07,-0.62 0.07,-0.85l0 -9.88c0,-0.5 -0.05,-1.05 -0.17,-1.66 -0.12,-0.62 -0.4,-1.16 -0.85,-1.64 -0.33,-0.35 -0.76,-0.63 -1.28,-0.84 -0.52,-0.21 -1.06,-0.31 -1.62,-0.31l-8.11 0zm10.35 8.1l0 6.18c0,0.1 -0.01,0.19 -0.03,0.27 -0.02,0.09 -0.09,0.18 -0.19,0.28 -0.1,0.11 -0.22,0.17 -0.36,0.18 -0.13,0.01 -0.25,0.01 -0.36,0.01l-6.64 0c-0.35,0 -0.67,-0.07 -0.95,-0.2 -0.28,-0.14 -0.5,-0.31 -0.67,-0.51 -0.29,-0.35 -0.47,-0.8 -0.54,-1.32 -0.08,-0.53 -0.11,-1.04 -0.11,-1.54 0,-0.58 0.03,-1.08 0.11,-1.5 0.07,-0.43 0.21,-0.77 0.42,-1.04 0.12,-0.17 0.34,-0.34 0.64,-0.53 0.3,-0.19 0.69,-0.28 1.17,-0.28l7.51 0z"/>
  <path id="21" class="fil7" d="M545.11 109.5l8.51 0c0.14,0 0.32,-0.01 0.54,-0.03 0.22,-0.02 0.46,-0.07 0.72,-0.13 0.26,-0.06 0.52,-0.15 0.78,-0.28 0.26,-0.12 0.51,-0.3 0.76,-0.53 0.29,-0.27 0.52,-0.58 0.69,-0.92 0.16,-0.34 0.28,-0.68 0.36,-1.03 0.07,-0.34 0.12,-0.67 0.14,-0.99 0.02,-0.33 0.03,-0.6 0.03,-0.83 0,-0.44 -0.05,-0.91 -0.14,-1.42 -0.1,-0.51 -0.3,-0.97 -0.61,-1.39 -0.23,-0.29 -0.46,-0.51 -0.7,-0.65 -0.24,-0.15 -0.46,-0.24 -0.67,-0.28l0 -0.1c0.35,-0.1 0.64,-0.24 0.87,-0.43 0.23,-0.19 0.41,-0.37 0.53,-0.53 0.29,-0.42 0.47,-0.89 0.53,-1.42 0.06,-0.53 0.09,-0.98 0.09,-1.36 0,-0.49 -0.05,-1.03 -0.17,-1.62 -0.11,-0.58 -0.4,-1.1 -0.85,-1.56 -0.15,-0.14 -0.46,-0.35 -0.92,-0.62 -0.47,-0.27 -1.14,-0.4 -2.01,-0.4l-8.17 0 0 1.49 8.01 0c0.48,0 0.85,0.07 1.12,0.2 0.27,0.13 0.48,0.28 0.63,0.45 0.29,0.31 0.46,0.67 0.53,1.08 0.06,0.41 0.09,0.78 0.09,1.11 0,0.1 -0.01,0.25 -0.02,0.43 -0.01,0.19 -0.03,0.38 -0.07,0.59 -0.05,0.2 -0.11,0.41 -0.19,0.63 -0.08,0.21 -0.2,0.4 -0.34,0.54 -0.17,0.18 -0.4,0.34 -0.71,0.47 -0.3,0.14 -0.66,0.21 -1.07,0.21l-7.83 0 0 1.49 7.61 0c0.29,0 0.6,0.03 0.94,0.1 0.33,0.06 0.65,0.24 0.96,0.52 0.4,0.35 0.63,0.75 0.7,1.2 0.08,0.44 0.11,0.87 0.11,1.28 0,0.11 0,0.27 -0.01,0.49 -0.01,0.21 -0.03,0.44 -0.07,0.68 -0.03,0.24 -0.08,0.48 -0.15,0.73 -0.07,0.25 -0.17,0.45 -0.3,0.62 -0.23,0.31 -0.5,0.5 -0.81,0.59 -0.31,0.08 -0.58,0.12 -0.81,0.12l-8.63 0 0 1.5z"/>
  <path id="22" class="fil7" d="M562.69 92.98l0 1.49 8.01 0c0.39,0 0.74,0.07 1.04,0.21 0.3,0.15 0.54,0.33 0.7,0.53 0.21,0.25 0.37,0.57 0.47,0.96 0.11,0.39 0.16,0.71 0.16,0.98l0 2.43 -7.17 0c-0.48,0 -1,0.06 -1.56,0.16 -0.56,0.1 -1.07,0.34 -1.53,0.72 -0.6,0.5 -0.98,1.11 -1.14,1.83 -0.15,0.72 -0.23,1.41 -0.23,2.08 0,0.25 0.01,0.57 0.03,0.95 0.02,0.39 0.08,0.78 0.19,1.19 0.1,0.41 0.25,0.82 0.43,1.22 0.19,0.41 0.47,0.74 0.82,1.02 0.46,0.35 0.95,0.57 1.48,0.64 0.54,0.07 1.04,0.11 1.52,0.11l6.37 0c0.29,0 0.62,-0.02 0.97,-0.06 0.35,-0.05 0.66,-0.18 0.91,-0.41 0.27,-0.25 0.43,-0.54 0.48,-0.87 0.05,-0.34 0.08,-0.62 0.08,-0.85l0 -9.88c0,-0.5 -0.06,-1.05 -0.18,-1.66 -0.11,-0.62 -0.39,-1.16 -0.84,-1.64 -0.34,-0.35 -0.77,-0.63 -1.29,-0.84 -0.52,-0.21 -1.06,-0.31 -1.62,-0.31l-8.1 0zm10.35 8.1l0 6.18c0,0.1 -0.01,0.19 -0.03,0.27 -0.02,0.09 -0.09,0.18 -0.19,0.28 -0.11,0.11 -0.22,0.17 -0.36,0.18 -0.14,0.01 -0.26,0.01 -0.36,0.01l-6.64 0c-0.35,0 -0.67,-0.07 -0.95,-0.2 -0.28,-0.14 -0.5,-0.31 -0.67,-0.51 -0.29,-0.35 -0.47,-0.8 -0.54,-1.32 -0.08,-0.53 -0.11,-1.04 -0.11,-1.54 0,-0.58 0.03,-1.08 0.11,-1.5 0.07,-0.43 0.21,-0.77 0.42,-1.04 0.12,-0.17 0.33,-0.34 0.64,-0.53 0.3,-0.19 0.69,-0.28 1.16,-0.28l7.52 0z"/>
  <path id="23" class="fil7" d="M522.51 87.68l-15.4 0c-0.58,0 -1.05,0.08 -1.4,0.26 -0.36,0.18 -0.63,0.36 -0.81,0.55 -0.34,0.35 -0.54,0.74 -0.63,1.17 -0.08,0.42 -0.12,0.82 -0.12,1.2l0 15.74c0,0.31 0.03,0.65 0.09,1.01 0.06,0.37 0.23,0.7 0.5,1.02 0.21,0.22 0.48,0.43 0.83,0.6 0.34,0.18 0.79,0.27 1.35,0.27l11.79 0c0.54,0 1.01,-0.05 1.43,-0.16 0.42,-0.1 0.77,-0.23 1.08,-0.37 0.3,-0.15 0.55,-0.3 0.74,-0.47 0.2,-0.17 0.36,-0.31 0.49,-0.44 0.31,-0.35 0.58,-0.9 0.82,-1.65 0.24,-0.75 0.36,-1.83 0.36,-3.24 0,-1.02 -0.08,-1.93 -0.25,-2.73 -0.16,-0.8 -0.45,-1.47 -0.87,-2.01 -0.29,-0.35 -0.6,-0.64 -0.94,-0.86 -0.33,-0.21 -0.67,-0.38 -1.01,-0.5 -0.34,-0.11 -0.68,-0.18 -1.01,-0.21 -0.33,-0.03 -0.64,-0.05 -0.91,-0.05l-10.38 0 0 -4.52c0,-0.15 0.01,-0.33 0.03,-0.55 0.02,-0.21 0.12,-0.4 0.28,-0.54 0.15,-0.11 0.33,-0.17 0.53,-0.2 0.21,-0.04 0.42,-0.05 0.63,-0.05l12.78 0 0 -3.27zm-14.25 12.4l8.33 0c0.35,0 0.72,0.03 1.1,0.08 0.39,0.05 0.72,0.22 1.02,0.52 0.33,0.31 0.53,0.68 0.59,1.1 0.06,0.43 0.09,0.85 0.09,1.26 0,0.34 -0.02,0.76 -0.06,1.27 -0.04,0.51 -0.24,0.94 -0.59,1.29 -0.31,0.31 -0.66,0.49 -1.03,0.55 -0.38,0.05 -0.75,0.07 -1.12,0.07l-6.61 0c-0.23,0 -0.51,-0.01 -0.83,-0.03 -0.32,-0.02 -0.57,-0.14 -0.73,-0.37 -0.04,-0.04 -0.08,-0.14 -0.11,-0.28 -0.03,-0.15 -0.05,-0.46 -0.05,-0.94l0 -4.52z"/>
  <path id="24" class="fil7" d="M594.47 92.98l0 1.49 8.01 0c0.39,0 0.74,0.07 1.04,0.21 0.3,0.15 0.54,0.33 0.7,0.53 0.21,0.25 0.37,0.57 0.47,0.96 0.11,0.39 0.16,0.71 0.16,0.98l0 2.43 -7.17 0c-0.48,0 -1,0.06 -1.56,0.16 -0.56,0.1 -1.07,0.34 -1.53,0.72 -0.6,0.5 -0.98,1.11 -1.14,1.83 -0.15,0.72 -0.23,1.41 -0.23,2.08 0,0.25 0.01,0.57 0.03,0.95 0.02,0.39 0.08,0.78 0.19,1.19 0.1,0.41 0.25,0.82 0.43,1.22 0.19,0.41 0.47,0.74 0.82,1.02 0.46,0.35 0.95,0.57 1.48,0.64 0.54,0.07 1.04,0.11 1.52,0.11l6.37 0c0.29,0 0.62,-0.02 0.97,-0.06 0.35,-0.05 0.66,-0.18 0.91,-0.41 0.27,-0.25 0.43,-0.54 0.48,-0.87 0.05,-0.34 0.08,-0.62 0.08,-0.85l0 -9.88c0,-0.5 -0.06,-1.05 -0.18,-1.66 -0.11,-0.62 -0.39,-1.16 -0.84,-1.64 -0.34,-0.35 -0.77,-0.63 -1.29,-0.84 -0.52,-0.21 -1.06,-0.31 -1.62,-0.31l-8.1 0zm10.35 8.1l0 6.18c0,0.1 -0.01,0.19 -0.04,0.27 -0.02,0.09 -0.08,0.18 -0.18,0.28 -0.11,0.11 -0.23,0.17 -0.36,0.18 -0.14,0.01 -0.26,0.01 -0.36,0.01l-6.64 0c-0.35,0 -0.67,-0.07 -0.95,-0.2 -0.28,-0.14 -0.5,-0.31 -0.67,-0.51 -0.29,-0.35 -0.47,-0.8 -0.55,-1.32 -0.07,-0.53 -0.1,-1.04 -0.1,-1.54 0,-0.58 0.03,-1.08 0.1,-1.5 0.08,-0.43 0.22,-0.77 0.42,-1.04 0.13,-0.17 0.34,-0.34 0.64,-0.53 0.31,-0.19 0.7,-0.28 1.17,-0.28l7.52 0z"/>
  <polygon id="25" class="fil7" points="624.36,109.5 624.36,92.98 622.74,92.98 622.74,100.21 612.83,100.21 612.83,92.98 611.2,92.98 611.2,109.5 612.83,109.5 612.83,101.7 622.74,101.7 622.74,109.5 "/>
  <path id="26" class="fil7" d="M629.72 92.98l0 1.49 8.01 0c0.4,0 0.74,0.07 1.05,0.21 0.3,0.15 0.53,0.33 0.7,0.53 0.2,0.25 0.36,0.57 0.46,0.96 0.11,0.39 0.16,0.71 0.16,0.98l0 2.43 -7.17 0c-0.48,0 -1,0.06 -1.56,0.16 -0.56,0.1 -1.07,0.34 -1.53,0.72 -0.6,0.5 -0.98,1.11 -1.13,1.83 -0.16,0.72 -0.24,1.41 -0.24,2.08 0,0.25 0.01,0.57 0.03,0.95 0.02,0.39 0.09,0.78 0.19,1.19 0.1,0.41 0.25,0.82 0.44,1.22 0.18,0.41 0.46,0.74 0.81,1.02 0.46,0.35 0.95,0.57 1.48,0.64 0.54,0.07 1.04,0.11 1.52,0.11l6.38 0c0.29,0 0.61,-0.02 0.96,-0.06 0.36,-0.05 0.66,-0.18 0.91,-0.41 0.27,-0.25 0.43,-0.54 0.48,-0.87 0.06,-0.34 0.08,-0.62 0.08,-0.85l0 -9.88c0,-0.5 -0.05,-1.05 -0.17,-1.66 -0.12,-0.62 -0.4,-1.16 -0.85,-1.64 -0.33,-0.35 -0.76,-0.63 -1.28,-0.84 -0.52,-0.21 -1.06,-0.31 -1.63,-0.31l-8.1 0zm10.35 8.1l0 6.18c0,0.1 -0.01,0.19 -0.03,0.27 -0.02,0.09 -0.09,0.18 -0.19,0.28 -0.1,0.11 -0.22,0.17 -0.36,0.18 -0.13,0.01 -0.25,0.01 -0.36,0.01l-6.64 0c-0.35,0 -0.67,-0.07 -0.95,-0.2 -0.28,-0.14 -0.5,-0.31 -0.67,-0.51 -0.29,-0.35 -0.47,-0.8 -0.54,-1.32 -0.08,-0.53 -0.11,-1.04 -0.11,-1.54 0,-0.58 0.03,-1.08 0.11,-1.5 0.07,-0.43 0.21,-0.77 0.42,-1.04 0.12,-0.17 0.34,-0.34 0.64,-0.53 0.3,-0.19 0.69,-0.28 1.17,-0.28l7.51 0z"/>
  <path id="27" class="fil7" d="M644.59 109.5l1.8 0 5.71 -14.47c0.04,-0.1 0.08,-0.21 0.12,-0.32 0.05,-0.12 0.11,-0.18 0.19,-0.18 0.08,0 0.15,0.06 0.19,0.18 0.04,0.11 0.08,0.22 0.12,0.32l5.71 14.47 1.81 0 -6.21 -15.4c-0.25,-0.6 -0.54,-0.97 -0.87,-1.11 -0.33,-0.13 -0.58,-0.2 -0.75,-0.2 -0.16,0 -0.41,0.07 -0.75,0.2 -0.33,0.14 -0.62,0.51 -0.87,1.11l-6.2 15.4z"/>
  <path id="28" class="fil7" d="M670.65 92.79c-0.52,0 -1.06,0.02 -1.61,0.06 -0.55,0.04 -1.09,0.13 -1.62,0.25 -0.53,0.13 -1.04,0.31 -1.54,0.55 -0.5,0.23 -0.95,0.55 -1.34,0.95 -0.46,0.43 -0.82,0.94 -1.09,1.51 -0.27,0.57 -0.48,1.16 -0.63,1.76 -0.14,0.6 -0.24,1.21 -0.28,1.81 -0.04,0.6 -0.06,1.15 -0.06,1.65 0,0.48 0.02,1 0.05,1.56 0.03,0.56 0.12,1.13 0.26,1.7 0.15,0.57 0.36,1.14 0.63,1.7 0.27,0.56 0.64,1.07 1.12,1.52 0.45,0.44 0.96,0.78 1.51,1.03 0.55,0.25 1.1,0.44 1.65,0.56 0.55,0.13 1.09,0.21 1.61,0.24 0.52,0.03 0.96,0.04 1.34,0.04 0.37,0 0.81,-0.01 1.32,-0.04 0.51,-0.03 1.05,-0.11 1.61,-0.24 0.56,-0.12 1.12,-0.31 1.67,-0.56 0.55,-0.25 1.05,-0.59 1.51,-1.03 0.52,-0.52 0.99,-1.31 1.42,-2.38 0.42,-1.07 0.63,-2.5 0.63,-4.29 0,-0.45 -0.02,-0.97 -0.06,-1.54 -0.04,-0.57 -0.13,-1.15 -0.28,-1.75 -0.14,-0.59 -0.35,-1.17 -0.62,-1.74 -0.27,-0.57 -0.64,-1.08 -1.09,-1.51 -0.42,-0.4 -0.87,-0.72 -1.36,-0.95 -0.49,-0.24 -1,-0.42 -1.53,-0.55 -0.53,-0.12 -1.07,-0.21 -1.62,-0.25 -0.55,-0.04 -1.08,-0.06 -1.6,-0.06zm-6.42 8.51c0,-0.35 0,-0.77 0.01,-1.26 0.01,-0.49 0.06,-0.98 0.14,-1.49 0.08,-0.5 0.21,-1 0.39,-1.47 0.18,-0.48 0.43,-0.9 0.77,-1.27 0.31,-0.36 0.68,-0.63 1.1,-0.83 0.43,-0.19 0.87,-0.34 1.34,-0.45 0.47,-0.1 0.93,-0.17 1.39,-0.2 0.46,-0.03 0.88,-0.05 1.28,-0.05 0.39,0 0.82,0.02 1.28,0.05 0.45,0.03 0.92,0.1 1.38,0.2 0.47,0.11 0.92,0.26 1.34,0.45 0.43,0.2 0.8,0.47 1.11,0.83 0.33,0.37 0.59,0.79 0.76,1.27 0.18,0.47 0.31,0.97 0.39,1.47 0.09,0.51 0.13,1 0.14,1.49 0.01,0.49 0.02,0.91 0.02,1.26 0,0.33 -0.01,0.72 -0.02,1.18 -0.01,0.46 -0.05,0.92 -0.14,1.41 -0.08,0.48 -0.22,0.97 -0.4,1.44 -0.19,0.48 -0.45,0.9 -0.78,1.27 -0.33,0.36 -0.7,0.64 -1.11,0.86 -0.4,0.21 -0.83,0.37 -1.29,0.48 -0.46,0.1 -0.92,0.17 -1.37,0.2 -0.46,0.03 -0.9,0.05 -1.31,0.05 -0.42,0 -0.85,-0.02 -1.31,-0.05 -0.46,-0.03 -0.92,-0.1 -1.37,-0.2 -0.46,-0.11 -0.89,-0.27 -1.3,-0.48 -0.4,-0.22 -0.77,-0.5 -1.1,-0.86 -0.36,-0.37 -0.62,-0.79 -0.8,-1.27 -0.18,-0.47 -0.31,-0.96 -0.39,-1.44 -0.08,-0.49 -0.13,-0.95 -0.14,-1.41 -0.01,-0.46 -0.01,-0.85 -0.01,-1.18z"/>
  <path id="29" class="fil7" d="M684.55 109.5l0 -13.84c0,-0.11 0,-0.26 0.01,-0.46 0.01,-0.19 0.07,-0.35 0.18,-0.48 0.12,-0.17 0.35,-0.25 0.68,-0.25l9.91 0 0 -1.49 -10.53 0c-0.29,0 -0.59,0.04 -0.89,0.14 -0.3,0.09 -0.55,0.3 -0.73,0.64 -0.15,0.22 -0.23,0.48 -0.24,0.77 -0.01,0.29 -0.01,0.57 -0.01,0.81l0 14.16 1.62 0z"/>
  <path id="30" class="fil7" d="M705.75 92.79c-0.52,0 -1.06,0.02 -1.61,0.06 -0.55,0.04 -1.09,0.13 -1.62,0.25 -0.53,0.13 -1.04,0.31 -1.54,0.55 -0.5,0.23 -0.95,0.55 -1.34,0.95 -0.46,0.43 -0.83,0.94 -1.1,1.51 -0.27,0.57 -0.47,1.16 -0.62,1.76 -0.14,0.6 -0.24,1.21 -0.28,1.81 -0.04,0.6 -0.06,1.15 -0.06,1.65 0,0.48 0.01,1 0.04,1.56 0.04,0.56 0.12,1.13 0.27,1.7 0.15,0.57 0.35,1.14 0.62,1.7 0.27,0.56 0.65,1.07 1.13,1.52 0.45,0.44 0.96,0.78 1.51,1.03 0.55,0.25 1.1,0.44 1.65,0.56 0.55,0.13 1.08,0.21 1.61,0.24 0.51,0.03 0.96,0.04 1.34,0.04 0.37,0 0.81,-0.01 1.32,-0.04 0.51,-0.03 1.04,-0.11 1.61,-0.24 0.56,-0.12 1.11,-0.31 1.66,-0.56 0.55,-0.25 1.06,-0.59 1.52,-1.03 0.51,-0.52 0.99,-1.31 1.41,-2.38 0.43,-1.07 0.64,-2.5 0.64,-4.29 0,-0.45 -0.02,-0.97 -0.06,-1.54 -0.04,-0.57 -0.13,-1.15 -0.28,-1.75 -0.15,-0.59 -0.35,-1.17 -0.62,-1.74 -0.27,-0.57 -0.64,-1.08 -1.09,-1.51 -0.42,-0.4 -0.87,-0.72 -1.36,-0.95 -0.49,-0.24 -1,-0.42 -1.53,-0.55 -0.53,-0.12 -1.07,-0.21 -1.62,-0.25 -0.55,-0.04 -1.09,-0.06 -1.6,-0.06zm-6.43 8.51c0,-0.35 0.01,-0.77 0.02,-1.26 0.01,-0.49 0.06,-0.98 0.14,-1.49 0.08,-0.5 0.21,-1 0.39,-1.47 0.18,-0.48 0.43,-0.9 0.76,-1.27 0.31,-0.36 0.68,-0.63 1.11,-0.83 0.43,-0.19 0.87,-0.34 1.34,-0.45 0.47,-0.1 0.93,-0.17 1.39,-0.2 0.45,-0.03 0.88,-0.05 1.28,-0.05 0.39,0 0.82,0.02 1.27,0.05 0.46,0.03 0.92,0.1 1.39,0.2 0.47,0.11 0.91,0.26 1.34,0.45 0.43,0.2 0.8,0.47 1.11,0.83 0.33,0.37 0.59,0.79 0.76,1.27 0.18,0.47 0.31,0.97 0.39,1.47 0.08,0.51 0.13,1 0.14,1.49 0.01,0.49 0.02,0.91 0.02,1.26 0,0.33 -0.01,0.72 -0.02,1.18 -0.01,0.46 -0.06,0.92 -0.14,1.41 -0.08,0.48 -0.22,0.97 -0.4,1.44 -0.19,0.48 -0.45,0.9 -0.78,1.27 -0.34,0.36 -0.71,0.64 -1.11,0.86 -0.41,0.21 -0.84,0.37 -1.29,0.48 -0.46,0.1 -0.92,0.17 -1.38,0.2 -0.45,0.03 -0.89,0.05 -1.3,0.05 -0.42,0 -0.86,-0.02 -1.31,-0.05 -0.46,-0.03 -0.92,-0.1 -1.38,-0.2 -0.45,-0.11 -0.88,-0.27 -1.29,-0.48 -0.4,-0.22 -0.77,-0.5 -1.11,-0.86 -0.35,-0.37 -0.61,-0.79 -0.79,-1.27 -0.18,-0.47 -0.31,-0.96 -0.39,-1.44 -0.08,-0.49 -0.13,-0.95 -0.14,-1.41 -0.01,-0.46 -0.02,-0.85 -0.02,-1.18z"/>
  <path id="31" class="fil7" d="M728.78 100.85c0.42,-0.07 0.76,-0.2 1.03,-0.41 0.27,-0.21 0.48,-0.39 0.62,-0.56 0.27,-0.35 0.44,-0.75 0.5,-1.21 0.06,-0.46 0.09,-0.88 0.09,-1.28 0,-0.14 0,-0.35 -0.01,-0.61 -0.01,-0.25 -0.05,-0.54 -0.11,-0.85 -0.06,-0.31 -0.15,-0.62 -0.25,-0.92 -0.1,-0.3 -0.25,-0.57 -0.44,-0.82 -0.22,-0.29 -0.58,-0.56 -1.06,-0.82 -0.47,-0.26 -1.14,-0.39 -1.99,-0.39l-7.2 0c-0.25,0 -0.5,0.05 -0.76,0.15 -0.26,0.11 -0.48,0.24 -0.64,0.41 -0.17,0.16 -0.3,0.37 -0.39,0.6 -0.1,0.24 -0.14,0.51 -0.14,0.8l0 12.59c0,0.25 0.02,0.5 0.06,0.75 0.04,0.25 0.15,0.48 0.34,0.69 0.31,0.35 0.77,0.53 1.37,0.53l7.67 0c0.37,0 0.78,-0.06 1.22,-0.19 0.43,-0.12 0.86,-0.4 1.28,-0.84 0.51,-0.57 0.83,-1.2 0.93,-1.91 0.1,-0.7 0.16,-1.41 0.16,-2.09 0,-0.42 -0.03,-0.84 -0.07,-1.28 -0.04,-0.44 -0.2,-0.85 -0.5,-1.22 -0.16,-0.23 -0.38,-0.44 -0.67,-0.64 -0.28,-0.2 -0.62,-0.34 -1.04,-0.42l0 -0.06zm-9.13 -0.74l0 -5.05c0,-0.06 0.01,-0.14 0.04,-0.24 0.04,-0.09 0.07,-0.15 0.11,-0.19 0.04,-0.04 0.12,-0.08 0.24,-0.11 0.11,-0.03 0.2,-0.05 0.26,-0.05l6.58 0c0.23,0 0.51,0.03 0.84,0.08 0.33,0.05 0.63,0.21 0.91,0.48 0.31,0.3 0.49,0.67 0.56,1.11 0.06,0.43 0.09,0.79 0.09,1.08 0,0.34 -0.03,0.73 -0.09,1.14 -0.07,0.41 -0.23,0.77 -0.5,1.07 -0.25,0.32 -0.53,0.5 -0.83,0.58 -0.3,0.07 -0.62,0.1 -0.95,0.1l-7.26 0zm0 1.5l7.23 0c0.33,0 0.65,0.05 0.96,0.14 0.32,0.09 0.61,0.3 0.88,0.6 0.29,0.36 0.46,0.76 0.51,1.2 0.05,0.45 0.08,0.84 0.08,1.19 0,0.42 -0.03,0.86 -0.08,1.32 -0.05,0.47 -0.22,0.88 -0.51,1.23 -0.29,0.35 -0.61,0.56 -0.97,0.62 -0.35,0.06 -0.76,0.09 -1.21,0.09l-5.9 0c-0.16,0 -0.31,-0.01 -0.45,-0.03 -0.13,-0.02 -0.25,-0.09 -0.36,-0.22 -0.08,-0.1 -0.13,-0.22 -0.15,-0.35 -0.02,-0.14 -0.03,-0.28 -0.03,-0.42l0 -5.37z"/>
  <path id="32" class="fil7" d="M525.03 147.19l-10.31 -9.2c-0.3,-0.27 -0.58,-0.56 -0.86,-0.87 -0.28,-0.31 -0.42,-0.71 -0.42,-1.19 0,-0.37 0.11,-0.68 0.33,-0.92 0.21,-0.24 0.45,-0.47 0.7,-0.7l9.41 -8.95 -5.08 0 -8.26 8.17c-0.29,0.29 -0.54,0.67 -0.75,1.12 -0.21,0.46 -0.31,0.9 -0.31,1.31 0,0.38 0.09,0.82 0.28,1.33 0.19,0.51 0.55,1.01 1.09,1.51l8.98 8.39 5.2 0zm-20.88 0l4.11 0 0 -21.83 -4.11 0 0 21.83z"/>
  <path id="33" class="fil7" d="M534.82 130.48c-0.52,0 -1.05,0.02 -1.6,0.06 -0.55,0.04 -1.09,0.12 -1.62,0.25 -0.53,0.12 -1.05,0.31 -1.55,0.54 -0.5,0.24 -0.94,0.56 -1.34,0.95 -0.46,0.44 -0.82,0.95 -1.09,1.52 -0.27,0.57 -0.48,1.16 -0.62,1.76 -0.15,0.6 -0.24,1.2 -0.28,1.81 -0.05,0.6 -0.07,1.15 -0.07,1.65 0,0.48 0.02,1 0.05,1.56 0.03,0.56 0.12,1.12 0.27,1.7 0.14,0.57 0.35,1.13 0.62,1.7 0.27,0.56 0.64,1.06 1.12,1.52 0.46,0.44 0.96,0.78 1.51,1.03 0.55,0.25 1.11,0.44 1.66,0.56 0.55,0.13 1.08,0.2 1.6,0.24 0.52,0.03 0.97,0.04 1.34,0.04 0.38,0 0.82,-0.01 1.33,-0.04 0.51,-0.04 1.04,-0.11 1.6,-0.24 0.56,-0.12 1.12,-0.31 1.67,-0.56 0.55,-0.25 1.05,-0.59 1.51,-1.03 0.52,-0.52 0.99,-1.31 1.42,-2.38 0.43,-1.07 0.64,-2.5 0.64,-4.29 0,-0.46 -0.02,-0.97 -0.06,-1.54 -0.05,-0.57 -0.14,-1.16 -0.28,-1.75 -0.15,-0.59 -0.36,-1.17 -0.63,-1.74 -0.27,-0.57 -0.63,-1.08 -1.09,-1.52 -0.41,-0.39 -0.87,-0.71 -1.36,-0.95 -0.48,-0.23 -0.99,-0.42 -1.52,-0.54 -0.53,-0.13 -1.07,-0.21 -1.62,-0.25 -0.55,-0.04 -1.09,-0.06 -1.61,-0.06zm-6.42 8.51c0,-0.36 0.01,-0.77 0.02,-1.26 0.01,-0.49 0.05,-0.98 0.14,-1.49 0.08,-0.51 0.21,-1 0.39,-1.47 0.17,-0.48 0.43,-0.91 0.76,-1.27 0.31,-0.36 0.68,-0.63 1.11,-0.83 0.42,-0.19 0.87,-0.34 1.34,-0.45 0.46,-0.1 0.93,-0.17 1.38,-0.2 0.46,-0.03 0.89,-0.05 1.28,-0.05 0.4,0 0.82,0.02 1.28,0.05 0.46,0.03 0.92,0.1 1.39,0.2 0.46,0.11 0.91,0.26 1.34,0.45 0.42,0.2 0.79,0.47 1.1,0.83 0.34,0.36 0.59,0.79 0.77,1.27 0.17,0.47 0.3,0.96 0.39,1.47 0.08,0.51 0.13,1 0.14,1.49 0.01,0.49 0.01,0.9 0.01,1.26 0,0.33 0,0.72 -0.01,1.18 -0.01,0.45 -0.06,0.92 -0.14,1.41 -0.09,0.48 -0.22,0.97 -0.41,1.44 -0.18,0.48 -0.44,0.9 -0.78,1.27 -0.33,0.35 -0.7,0.64 -1.1,0.86 -0.41,0.21 -0.84,0.37 -1.3,0.48 -0.45,0.1 -0.91,0.17 -1.37,0.2 -0.46,0.03 -0.89,0.05 -1.31,0.05 -0.41,0 -0.85,-0.02 -1.31,-0.05 -0.46,-0.03 -0.91,-0.1 -1.37,-0.2 -0.46,-0.11 -0.89,-0.27 -1.29,-0.48 -0.41,-0.22 -0.78,-0.51 -1.11,-0.86 -0.35,-0.37 -0.62,-0.79 -0.79,-1.27 -0.18,-0.47 -0.31,-0.96 -0.39,-1.44 -0.09,-0.49 -0.13,-0.96 -0.14,-1.41 -0.01,-0.46 -0.02,-0.85 -0.02,-1.18z"/>
  <path id="34" class="fil7" d="M563.16 132.75c0.02,-0.04 0.05,-0.1 0.09,-0.17 0.04,-0.07 0.08,-0.11 0.12,-0.11 0.07,0 0.1,0.03 0.11,0.08 0.01,0.05 0.02,0.1 0.02,0.14l0 14.5 1.62 0 0 -15c0,-1.14 -0.52,-1.71 -1.56,-1.71 -0.44,0 -0.77,0.09 -1,0.28 -0.22,0.18 -0.42,0.47 -0.59,0.84l-5.52 13.28c-0.16,0.37 -0.28,0.56 -0.34,0.56 -0.06,0 -0.18,-0.19 -0.34,-0.56l-5.52 -13.28c-0.17,-0.37 -0.36,-0.66 -0.59,-0.84 -0.23,-0.19 -0.56,-0.28 -1,-0.28 -1.04,0 -1.56,0.57 -1.56,1.71l0 15 1.62 0 0 -14.5c0,-0.04 0.01,-0.09 0.02,-0.14 0.01,-0.05 0.05,-0.08 0.11,-0.08 0.04,0 0.08,0.04 0.12,0.11 0.04,0.07 0.08,0.13 0.1,0.17l5.54 13.44c0.17,0.41 0.41,0.72 0.71,0.9 0.3,0.19 0.56,0.28 0.79,0.28 0.23,0 0.49,-0.09 0.8,-0.28 0.3,-0.18 0.53,-0.49 0.7,-0.9l5.55 -13.44z"/>
  <path id="35" class="fil7" d="M585.91 132.75c0.02,-0.04 0.05,-0.1 0.1,-0.17 0.04,-0.07 0.08,-0.11 0.12,-0.11 0.06,0 0.1,0.03 0.11,0.08 0.01,0.05 0.02,0.1 0.02,0.14l0 14.5 1.62 0 0 -15c0,-1.14 -0.52,-1.71 -1.56,-1.71 -0.44,0 -0.77,0.09 -1,0.28 -0.23,0.18 -0.43,0.47 -0.59,0.84l-5.52 13.28c-0.17,0.37 -0.28,0.56 -0.34,0.56 -0.07,0 -0.18,-0.19 -0.35,-0.56l-5.51 -13.28c-0.17,-0.37 -0.37,-0.66 -0.6,-0.84 -0.22,-0.19 -0.56,-0.28 -0.99,-0.28 -1.04,0 -1.56,0.57 -1.56,1.71l0 15 1.62 0 0 -14.5c0,-0.04 0,-0.09 0.01,-0.14 0.01,-0.05 0.05,-0.08 0.11,-0.08 0.04,0 0.09,0.04 0.13,0.11 0.04,0.07 0.07,0.13 0.09,0.17l5.55 13.44c0.17,0.41 0.4,0.72 0.7,0.9 0.3,0.19 0.57,0.28 0.8,0.28 0.23,0 0.49,-0.09 0.79,-0.28 0.3,-0.18 0.54,-0.49 0.7,-0.9l5.55 -13.44z"/>
  <path id="36" class="fil7" d="M605.8 147.19l0 -1.5 -8.11 0c-0.54,0 -1.01,-0.09 -1.43,-0.27 -0.41,-0.17 -0.77,-0.39 -1.07,-0.66 -0.31,-0.27 -0.56,-0.58 -0.75,-0.91 -0.2,-0.35 -0.34,-0.69 -0.42,-1.01 -0.13,-0.44 -0.21,-0.99 -0.25,-1.65 -0.05,-0.66 -0.06,-1.23 -0.03,-1.7l10.06 0c0.23,0 0.52,-0.03 0.86,-0.08 0.35,-0.05 0.64,-0.19 0.89,-0.42 0.29,-0.27 0.48,-0.61 0.56,-1 0.08,-0.4 0.13,-0.76 0.13,-1.09 0,-1.33 -0.26,-2.43 -0.78,-3.29 -0.52,-0.86 -1.15,-1.51 -1.87,-1.95 -0.67,-0.39 -1.39,-0.65 -2.17,-0.76 -0.78,-0.12 -1.46,-0.17 -2.04,-0.17 -0.83,0 -1.72,0.09 -2.65,0.26 -0.94,0.18 -1.78,0.58 -2.53,1.2 -0.52,0.44 -0.93,0.93 -1.23,1.48 -0.3,0.55 -0.52,1.13 -0.67,1.73 -0.14,0.6 -0.23,1.22 -0.26,1.84 -0.03,0.62 -0.05,1.23 -0.05,1.81 0,1.23 0.06,2.34 0.19,3.35 0.12,1.01 0.51,1.93 1.15,2.76 0.66,0.85 1.39,1.4 2.17,1.65 0.78,0.25 1.51,0.38 2.19,0.38l8.11 0zm-12.06 -9.2c0.02,-0.78 0.07,-1.48 0.15,-2.08 0.08,-0.61 0.29,-1.18 0.62,-1.71 0.3,-0.48 0.62,-0.84 0.97,-1.11 0.35,-0.27 0.73,-0.47 1.14,-0.59 0.4,-0.12 0.81,-0.2 1.23,-0.23 0.42,-0.03 0.83,-0.05 1.25,-0.05 0.37,0 0.75,0.01 1.12,0.03 0.37,0.02 0.75,0.08 1.12,0.17 0.38,0.09 0.73,0.23 1.08,0.42 0.34,0.18 0.66,0.45 0.95,0.8 0.25,0.31 0.45,0.64 0.61,0.97 0.15,0.34 0.27,0.67 0.34,0.97 0.07,0.31 0.12,0.59 0.14,0.84 0.02,0.25 0.03,0.43 0.03,0.55 0,0.06 0,0.16 0,0.28 0,0.1 -0.02,0.21 -0.06,0.32 -0.04,0.12 -0.11,0.21 -0.2,0.29 -0.1,0.09 -0.24,0.13 -0.43,0.13l-10.06 0z"/>
  <path id="37" class="fil7" d="M611.97 147.19l4.68 0c0.52,0 1.05,-0.03 1.6,-0.08 0.55,-0.05 1.08,-0.16 1.59,-0.33 0.51,-0.17 0.99,-0.41 1.45,-0.73 0.46,-0.32 0.86,-0.77 1.22,-1.33 0.58,-0.87 0.94,-1.84 1.07,-2.9 0.14,-1.06 0.21,-2.1 0.21,-3.14 0,-0.48 -0.02,-0.99 -0.05,-1.52 -0.03,-0.53 -0.1,-1.06 -0.2,-1.6 -0.11,-0.54 -0.28,-1.07 -0.52,-1.58 -0.24,-0.5 -0.55,-0.98 -0.95,-1.41 -0.21,-0.21 -0.46,-0.43 -0.75,-0.66 -0.29,-0.23 -0.64,-0.44 -1.04,-0.62 -0.41,-0.19 -0.87,-0.34 -1.39,-0.45 -0.52,-0.12 -1.1,-0.18 -1.74,-0.18l-4.18 0c-0.23,0 -0.52,0.03 -0.86,0.08 -0.34,0.05 -0.67,0.19 -0.98,0.42 -0.13,0.11 -0.29,0.28 -0.48,0.53 -0.2,0.25 -0.3,0.59 -0.3,1.03l0 19.77 1.62 0 0 -5.3zm0 -1.5l0 -12.72c0,-0.11 0.02,-0.21 0.05,-0.3 0.03,-0.09 0.1,-0.19 0.2,-0.29 0.06,-0.04 0.14,-0.09 0.23,-0.14 0.1,-0.05 0.19,-0.08 0.27,-0.08l4.77 0c0.77,0 1.52,0.18 2.26,0.55 0.74,0.35 1.31,0.97 1.73,1.84 0.29,0.64 0.47,1.35 0.53,2.11 0.06,0.76 0.09,1.51 0.09,2.23 0,0.89 -0.05,1.77 -0.15,2.64 -0.11,0.87 -0.38,1.63 -0.81,2.3 -0.25,0.37 -0.54,0.67 -0.86,0.91 -0.32,0.24 -0.66,0.43 -1,0.58 -0.34,0.14 -0.69,0.24 -1.03,0.29 -0.34,0.05 -0.66,0.08 -0.95,0.08l-5.33 0z"/>
  <path id="38" class="fil7" d="M640.68 147.19l0 -16.53 -1.62 0 0 7.27 -7.51 0c-0.5,0 -0.91,-0.08 -1.24,-0.22 -0.32,-0.15 -0.55,-0.31 -0.7,-0.49 -0.2,-0.25 -0.32,-0.55 -0.35,-0.91 -0.04,-0.35 -0.05,-0.67 -0.05,-0.96l0 -4.69 -1.62 0 0 4.34c0,0.6 0.03,1.2 0.09,1.79 0.06,0.59 0.27,1.1 0.63,1.51 0.45,0.54 1.01,0.86 1.68,0.97 0.66,0.1 1.27,0.15 1.81,0.15l7.26 0 0 7.77 1.62 0z"/>
  <path id="39" class="fil7" d="M658.6 147.19l0 -1.5 -8.1 0c-0.54,0 -1.02,-0.09 -1.44,-0.27 -0.41,-0.17 -0.77,-0.39 -1.07,-0.66 -0.3,-0.27 -0.55,-0.58 -0.75,-0.91 -0.2,-0.35 -0.34,-0.69 -0.42,-1.01 -0.12,-0.44 -0.21,-0.99 -0.25,-1.65 -0.04,-0.66 -0.05,-1.23 -0.03,-1.7l10.07 0c0.23,0 0.51,-0.03 0.86,-0.08 0.34,-0.05 0.63,-0.19 0.88,-0.42 0.3,-0.27 0.48,-0.61 0.57,-1 0.08,-0.4 0.12,-0.76 0.12,-1.09 0,-1.33 -0.26,-2.43 -0.78,-3.29 -0.52,-0.86 -1.14,-1.51 -1.87,-1.95 -0.66,-0.39 -1.39,-0.65 -2.17,-0.76 -0.78,-0.12 -1.46,-0.17 -2.04,-0.17 -0.83,0 -1.71,0.09 -2.65,0.26 -0.93,0.18 -1.77,0.58 -2.52,1.2 -0.52,0.44 -0.93,0.93 -1.23,1.48 -0.31,0.55 -0.53,1.13 -0.67,1.73 -0.15,0.6 -0.24,1.22 -0.27,1.84 -0.03,0.62 -0.05,1.23 -0.05,1.81 0,1.23 0.07,2.34 0.19,3.35 0.13,1.01 0.51,1.93 1.15,2.76 0.67,0.85 1.39,1.4 2.17,1.65 0.78,0.25 1.51,0.38 2.2,0.38l8.1 0zm-12.06 -9.2c0.02,-0.78 0.07,-1.48 0.16,-2.08 0.08,-0.61 0.29,-1.18 0.62,-1.71 0.29,-0.48 0.61,-0.84 0.97,-1.11 0.35,-0.27 0.73,-0.47 1.13,-0.59 0.41,-0.12 0.82,-0.2 1.23,-0.23 0.42,-0.03 0.84,-0.05 1.25,-0.05 0.38,0 0.75,0.01 1.12,0.03 0.38,0.02 0.75,0.08 1.13,0.17 0.37,0.09 0.73,0.23 1.07,0.42 0.34,0.18 0.66,0.45 0.95,0.8 0.25,0.31 0.45,0.64 0.61,0.97 0.16,0.34 0.27,0.67 0.34,0.97 0.08,0.31 0.12,0.59 0.14,0.84 0.02,0.25 0.03,0.43 0.03,0.55 0,0.06 0,0.16 0,0.28 0,0.1 -0.02,0.21 -0.06,0.32 -0.04,0.12 -0.11,0.21 -0.2,0.29 -0.09,0.09 -0.23,0.13 -0.42,0.13l-10.07 0z"/>
  <path id="40" class="fil7" d="M675.47 147.19l0 -1.5 -5.8 0c-0.38,0 -0.8,-0.03 -1.26,-0.08 -0.47,-0.05 -0.93,-0.16 -1.39,-0.33 -0.46,-0.16 -0.88,-0.41 -1.26,-0.74 -0.39,-0.33 -0.7,-0.76 -0.95,-1.3 -0.11,-0.25 -0.2,-0.54 -0.28,-0.87 -0.09,-0.33 -0.15,-0.67 -0.19,-1.02 -0.04,-0.36 -0.07,-0.71 -0.09,-1.04 -0.03,-0.35 -0.04,-0.66 -0.04,-0.95 0,-0.25 0.01,-0.54 0.02,-0.89 0.01,-0.33 0.03,-0.68 0.06,-1.04 0.03,-0.34 0.07,-0.69 0.11,-1.03 0.04,-0.34 0.09,-0.64 0.16,-0.89 0.31,-1.16 0.91,-2 1.79,-2.54 0.88,-0.54 1.88,-0.81 2.98,-0.81l5.76 0 0 -1.5 -5.58 0c-1.28,0 -2.35,0.19 -3.18,0.57 -0.83,0.37 -1.48,0.79 -1.96,1.27 -0.42,0.44 -0.75,0.93 -1,1.47 -0.25,0.54 -0.43,1.1 -0.56,1.68 -0.12,0.58 -0.2,1.17 -0.23,1.76 -0.03,0.6 -0.05,1.17 -0.05,1.73 0,0.48 0.01,0.98 0.03,1.48 0.02,0.51 0.08,1.03 0.17,1.55 0.1,0.52 0.24,1.03 0.44,1.52 0.2,0.5 0.47,0.97 0.83,1.41 0.18,0.23 0.42,0.46 0.7,0.7 0.28,0.24 0.62,0.46 1.01,0.67 0.39,0.21 0.85,0.38 1.37,0.51 0.52,0.14 1.11,0.21 1.78,0.21l6.61 0z"/>
  <path id="41" class="fil7" d="M692.3 147.19l-8.07 -7.61c-0.11,-0.1 -0.22,-0.24 -0.33,-0.42 -0.12,-0.18 -0.17,-0.34 -0.17,-0.48 0,-0.21 0.09,-0.42 0.26,-0.61 0.18,-0.2 0.32,-0.35 0.42,-0.45l7.36 -6.96 -2.21 0 -6.3 5.87c-0.27,0.24 -0.55,0.57 -0.84,0.96 -0.29,0.4 -0.44,0.79 -0.44,1.19 0,0.24 0.07,0.54 0.22,0.87 0.15,0.33 0.43,0.69 0.84,1.09l6.95 6.55 2.31 0zm-11.1 0l0 -16.53 -1.62 0 0 16.53 1.62 0z"/>
  <path id="42" class="fil7" d="M702.71 130.48c-0.52,0 -1.05,0.02 -1.6,0.06 -0.56,0.04 -1.1,0.12 -1.63,0.25 -0.53,0.12 -1.04,0.31 -1.54,0.54 -0.5,0.24 -0.95,0.56 -1.34,0.95 -0.46,0.44 -0.82,0.95 -1.09,1.52 -0.27,0.57 -0.48,1.16 -0.62,1.76 -0.15,0.6 -0.24,1.2 -0.28,1.81 -0.05,0.6 -0.07,1.15 -0.07,1.65 0,0.48 0.02,1 0.05,1.56 0.03,0.56 0.12,1.12 0.27,1.7 0.14,0.57 0.35,1.13 0.62,1.7 0.27,0.56 0.64,1.06 1.12,1.52 0.46,0.44 0.96,0.78 1.51,1.03 0.55,0.25 1.1,0.44 1.65,0.56 0.55,0.13 1.09,0.2 1.61,0.24 0.52,0.03 0.97,0.04 1.34,0.04 0.37,0 0.82,-0.01 1.33,-0.04 0.5,-0.04 1.04,-0.11 1.6,-0.24 0.56,-0.12 1.12,-0.31 1.67,-0.56 0.55,-0.25 1.05,-0.59 1.51,-1.03 0.52,-0.52 0.99,-1.31 1.42,-2.38 0.43,-1.07 0.64,-2.5 0.64,-4.29 0,-0.46 -0.02,-0.97 -0.06,-1.54 -0.05,-0.57 -0.14,-1.16 -0.28,-1.75 -0.15,-0.59 -0.36,-1.17 -0.63,-1.74 -0.27,-0.57 -0.63,-1.08 -1.09,-1.52 -0.42,-0.39 -0.87,-0.71 -1.36,-0.95 -0.48,-0.23 -0.99,-0.42 -1.52,-0.54 -0.53,-0.13 -1.07,-0.21 -1.62,-0.25 -0.55,-0.04 -1.09,-0.06 -1.61,-0.06zm-6.42 8.51c0,-0.36 0,-0.77 0.01,-1.26 0.01,-0.49 0.06,-0.98 0.14,-1.49 0.09,-0.51 0.22,-1 0.39,-1.47 0.18,-0.48 0.44,-0.91 0.77,-1.27 0.31,-0.36 0.68,-0.63 1.1,-0.83 0.43,-0.19 0.88,-0.34 1.34,-0.45 0.47,-0.1 0.94,-0.17 1.39,-0.2 0.46,-0.03 0.89,-0.05 1.28,-0.05 0.39,0 0.82,0.02 1.28,0.05 0.46,0.03 0.92,0.1 1.39,0.2 0.46,0.11 0.91,0.26 1.34,0.45 0.42,0.2 0.79,0.47 1.1,0.83 0.34,0.36 0.59,0.79 0.77,1.27 0.17,0.47 0.3,0.96 0.39,1.47 0.08,0.51 0.13,1 0.14,1.49 0.01,0.49 0.01,0.9 0.01,1.26 0,0.33 0,0.72 -0.01,1.18 -0.01,0.45 -0.06,0.92 -0.14,1.41 -0.09,0.48 -0.22,0.97 -0.41,1.44 -0.19,0.48 -0.45,0.9 -0.78,1.27 -0.33,0.35 -0.7,0.64 -1.11,0.86 -0.4,0.21 -0.83,0.37 -1.29,0.48 -0.46,0.1 -0.91,0.17 -1.37,0.2 -0.46,0.03 -0.89,0.05 -1.31,0.05 -0.42,0 -0.85,-0.02 -1.31,-0.05 -0.46,-0.03 -0.91,-0.1 -1.37,-0.2 -0.46,-0.11 -0.89,-0.27 -1.29,-0.48 -0.41,-0.22 -0.78,-0.51 -1.11,-0.86 -0.35,-0.37 -0.62,-0.79 -0.8,-1.27 -0.17,-0.47 -0.3,-0.96 -0.39,-1.44 -0.08,-0.49 -0.13,-0.96 -0.14,-1.41 -0.01,-0.46 -0.01,-0.85 -0.01,-1.18z"/>
  <path id="43" class="fil7" d="M728.8 147.19l0 -14.81c0,-0.13 -0.01,-0.29 -0.03,-0.5 -0.02,-0.21 -0.08,-0.42 -0.17,-0.62 -0.09,-0.21 -0.24,-0.39 -0.42,-0.55 -0.19,-0.15 -0.46,-0.23 -0.81,-0.23 -0.73,0 -1.3,0.33 -1.72,0.99l-8.51 13.56c-0.14,0.27 -0.26,0.41 -0.34,0.41 -0.1,0 -0.16,-0.05 -0.17,-0.14 -0.01,-0.09 -0.02,-0.18 -0.02,-0.27l0 -14.37 -1.62 0 0 15c0,0.54 0.13,0.96 0.39,1.26 0.26,0.3 0.63,0.45 1.11,0.45 0.41,0 0.75,-0.09 0.99,-0.28 0.25,-0.18 0.51,-0.49 0.78,-0.9l8.42 -13.38c0.1,-0.16 0.18,-0.27 0.23,-0.31 0.06,-0.04 0.09,-0.06 0.11,-0.06 0.11,0 0.16,0.04 0.16,0.13 0,0.06 0,0.14 0,0.24l0 14.38 1.62 0zm-6.79 -18.93c-0.48,0 -0.89,-0.05 -1.22,-0.17 -0.33,-0.11 -0.6,-0.26 -0.81,-0.45 -0.17,-0.14 -0.32,-0.34 -0.47,-0.59 -0.14,-0.25 -0.26,-0.5 -0.34,-0.75l-1.87 0c0.12,0.42 0.31,0.85 0.57,1.31 0.26,0.46 0.58,0.84 0.96,1.15 0.45,0.4 0.96,0.66 1.51,0.8 0.55,0.13 1.1,0.2 1.67,0.2 0.56,0 1.11,-0.07 1.66,-0.2 0.55,-0.14 1.06,-0.4 1.52,-0.8 0.37,-0.31 0.69,-0.69 0.95,-1.15 0.26,-0.46 0.45,-0.89 0.57,-1.31l-1.87 0c-0.08,0.25 -0.2,0.5 -0.34,0.75 -0.15,0.25 -0.3,0.45 -0.47,0.59 -0.21,0.19 -0.48,0.34 -0.81,0.45 -0.33,0.12 -0.74,0.17 -1.21,0.17z"/>
  <path id="44" class="fil7" d="M541.96 184.87l0 -1.49 -8.1 0c-0.55,0 -1.02,-0.09 -1.44,-0.27 -0.41,-0.17 -0.77,-0.39 -1.07,-0.66 -0.31,-0.27 -0.55,-0.58 -0.75,-0.92 -0.2,-0.34 -0.34,-0.68 -0.42,-1 -0.13,-0.44 -0.21,-0.99 -0.25,-1.65 -0.05,-0.66 -0.06,-1.23 -0.03,-1.71l10.07 0c0.22,0 0.51,-0.02 0.85,-0.07 0.35,-0.06 0.64,-0.2 0.89,-0.42 0.29,-0.28 0.48,-0.61 0.56,-1 0.08,-0.4 0.13,-0.76 0.13,-1.09 0,-1.33 -0.26,-2.43 -0.78,-3.29 -0.52,-0.86 -1.15,-1.51 -1.87,-1.95 -0.67,-0.39 -1.39,-0.65 -2.17,-0.76 -0.78,-0.12 -1.46,-0.17 -2.04,-0.17 -0.83,0 -1.72,0.08 -2.65,0.26 -0.94,0.18 -1.78,0.58 -2.53,1.2 -0.52,0.44 -0.93,0.93 -1.23,1.48 -0.3,0.55 -0.52,1.13 -0.67,1.73 -0.14,0.6 -0.23,1.22 -0.26,1.84 -0.03,0.62 -0.05,1.23 -0.05,1.81 0,1.22 0.06,2.34 0.19,3.35 0.12,1.01 0.51,1.93 1.15,2.76 0.67,0.85 1.39,1.4 2.17,1.65 0.78,0.25 1.51,0.37 2.2,0.37l8.1 0zm-12.06 -9.19c0.02,-0.78 0.07,-1.48 0.15,-2.09 0.08,-0.6 0.29,-1.17 0.63,-1.7 0.29,-0.48 0.61,-0.85 0.96,-1.12 0.35,-0.26 0.73,-0.46 1.14,-0.58 0.4,-0.12 0.82,-0.2 1.23,-0.23 0.42,-0.03 0.83,-0.05 1.25,-0.05 0.37,0 0.75,0.01 1.12,0.03 0.37,0.02 0.75,0.08 1.12,0.17 0.38,0.09 0.73,0.23 1.08,0.42 0.34,0.18 0.66,0.45 0.95,0.8 0.25,0.31 0.45,0.63 0.61,0.97 0.15,0.34 0.27,0.67 0.34,0.97 0.07,0.31 0.12,0.59 0.14,0.83 0.02,0.25 0.03,0.44 0.03,0.56 0,0.06 0,0.16 0,0.28 0,0.1 -0.02,0.21 -0.06,0.32 -0.04,0.12 -0.11,0.21 -0.2,0.29 -0.1,0.09 -0.24,0.13 -0.42,0.13l-10.07 0z"/>
  <path id="45" class="fil7" d="M545.98 183.38l-1.34 0 0 1.49 16.9 0 0 -1.49 -1.35 0 -5.33 -13.79c-0.1,-0.28 -0.29,-0.59 -0.56,-0.93 -0.27,-0.33 -0.67,-0.49 -1.21,-0.49 -0.54,0 -0.95,0.16 -1.22,0.49 -0.27,0.34 -0.46,0.65 -0.56,0.93l-5.33 13.79zm6.73 -13.13c0.05,-0.08 0.1,-0.18 0.16,-0.29 0.06,-0.12 0.13,-0.17 0.22,-0.17 0.08,0 0.15,0.05 0.22,0.17 0.06,0.11 0.11,0.21 0.15,0.29l5.05 13.13 -10.85 0 5.05 -13.13z"/>
  <path id="46" class="fil7" d="M575.16 176.22c0.41,-0.06 0.76,-0.19 1.03,-0.4 0.27,-0.21 0.47,-0.4 0.62,-0.56 0.27,-0.36 0.44,-0.76 0.5,-1.21 0.06,-0.46 0.09,-0.89 0.09,-1.28 0,-0.15 0,-0.35 -0.01,-0.61 -0.01,-0.25 -0.05,-0.54 -0.11,-0.85 -0.07,-0.31 -0.15,-0.62 -0.25,-0.92 -0.11,-0.3 -0.25,-0.58 -0.44,-0.82 -0.23,-0.29 -0.58,-0.57 -1.06,-0.83 -0.48,-0.26 -1.14,-0.39 -1.99,-0.39l-7.21 0c-0.25,0 -0.5,0.05 -0.76,0.16 -0.26,0.1 -0.47,0.24 -0.64,0.4 -0.16,0.17 -0.29,0.37 -0.39,0.61 -0.09,0.24 -0.14,0.5 -0.14,0.8l0 12.59c0,0.25 0.02,0.5 0.06,0.75 0.05,0.25 0.16,0.48 0.35,0.68 0.31,0.36 0.77,0.53 1.37,0.53l7.67 0c0.37,0 0.78,-0.06 1.21,-0.18 0.44,-0.13 0.87,-0.41 1.28,-0.84 0.52,-0.57 0.83,-1.21 0.94,-1.91 0.1,-0.71 0.15,-1.41 0.15,-2.1 0,-0.41 -0.02,-0.84 -0.06,-1.27 -0.04,-0.44 -0.21,-0.85 -0.5,-1.22 -0.16,-0.23 -0.39,-0.45 -0.67,-0.64 -0.28,-0.2 -0.63,-0.34 -1.04,-0.42l0 -0.07zm-9.14 -0.73l0 -5.05c0,-0.07 0.02,-0.15 0.05,-0.24 0.03,-0.09 0.07,-0.15 0.11,-0.2 0.04,-0.04 0.12,-0.07 0.23,-0.1 0.12,-0.04 0.21,-0.05 0.27,-0.05l6.58 0c0.22,0 0.5,0.02 0.84,0.08 0.33,0.05 0.63,0.2 0.9,0.47 0.31,0.31 0.5,0.68 0.56,1.11 0.06,0.44 0.1,0.8 0.1,1.08 0,0.35 -0.04,0.73 -0.1,1.14 -0.06,0.42 -0.23,0.77 -0.5,1.08 -0.25,0.31 -0.52,0.5 -0.82,0.57 -0.3,0.07 -0.62,0.11 -0.95,0.11l-7.27 0zm0 1.5l7.24 0c0.33,0 0.65,0.04 0.96,0.14 0.31,0.09 0.6,0.29 0.87,0.6 0.29,0.35 0.47,0.75 0.52,1.2 0.05,0.44 0.08,0.84 0.08,1.19 0,0.42 -0.03,0.85 -0.08,1.32 -0.05,0.46 -0.23,0.87 -0.52,1.23 -0.29,0.34 -0.61,0.55 -0.96,0.61 -0.36,0.07 -0.76,0.1 -1.22,0.1l-5.89 0c-0.17,0 -0.32,-0.01 -0.45,-0.03 -0.14,-0.02 -0.26,-0.1 -0.36,-0.22 -0.08,-0.11 -0.14,-0.23 -0.16,-0.36 -0.02,-0.13 -0.03,-0.27 -0.03,-0.42l0 -5.36z"/>
  <path id="47" class="fil7" d="M595.36 184.87l0 -14.8c0,-0.13 -0.01,-0.29 -0.04,-0.5 -0.02,-0.21 -0.07,-0.42 -0.17,-0.63 -0.09,-0.2 -0.23,-0.38 -0.42,-0.54 -0.18,-0.16 -0.45,-0.23 -0.81,-0.23 -0.73,0 -1.3,0.33 -1.71,0.99l-8.51 13.56c-0.15,0.27 -0.26,0.41 -0.35,0.41 -0.1,0 -0.16,-0.05 -0.17,-0.14 -0.01,-0.1 -0.01,-0.18 -0.01,-0.27l0 -14.37 -1.62 0 0 15c0,0.54 0.13,0.96 0.39,1.26 0.26,0.3 0.62,0.45 1.1,0.45 0.42,0 0.75,-0.09 1,-0.28 0.25,-0.19 0.51,-0.49 0.78,-0.9l8.42 -13.38c0.1,-0.16 0.18,-0.27 0.23,-0.31 0.05,-0.04 0.09,-0.06 0.11,-0.06 0.1,0 0.15,0.04 0.15,0.12 0,0.07 0,0.15 0,0.25l0 14.37 1.63 0z"/>
  <path id="48" class="fil7" d="M610.54 184.87l0 -16.52 -1.63 0 0 16.52 1.63 0zm10.63 0l-7.52 -7.54c-0.1,-0.1 -0.22,-0.25 -0.37,-0.44 -0.15,-0.18 -0.22,-0.37 -0.22,-0.56 0,-0.18 0.07,-0.36 0.22,-0.53 0.15,-0.16 0.27,-0.3 0.37,-0.4l7.05 -7.05 -2.21 0 -5.86 5.83c-0.3,0.29 -0.59,0.64 -0.88,1.03 -0.29,0.4 -0.43,0.81 -0.43,1.25 0,0.37 0.11,0.71 0.34,1.01 0.23,0.3 0.48,0.6 0.75,0.89l6.45 6.51 2.31 0zm-22.95 0l2.31 0 6.45 -6.51c0.27,-0.29 0.52,-0.59 0.75,-0.89 0.23,-0.3 0.34,-0.64 0.34,-1.01 0,-0.44 -0.14,-0.85 -0.43,-1.25 -0.29,-0.39 -0.58,-0.74 -0.88,-1.03l-5.86 -5.83 -2.21 0 7.05 7.05c0.1,0.1 0.22,0.24 0.37,0.4 0.15,0.17 0.22,0.35 0.22,0.53 0,0.19 -0.07,0.38 -0.22,0.56 -0.15,0.19 -0.27,0.34 -0.37,0.44l-7.52 7.54z"/>
  <path id="49" class="fil7" d="M637.84 184.87l0 -14.8c0,-0.13 -0.01,-0.29 -0.03,-0.5 -0.02,-0.21 -0.08,-0.42 -0.17,-0.63 -0.09,-0.2 -0.23,-0.38 -0.42,-0.54 -0.19,-0.16 -0.46,-0.23 -0.81,-0.23 -0.73,0 -1.3,0.33 -1.72,0.99l-8.51 13.56c-0.14,0.27 -0.26,0.41 -0.34,0.41 -0.1,0 -0.16,-0.05 -0.17,-0.14 -0.01,-0.1 -0.02,-0.18 -0.02,-0.27l0 -14.37 -1.62 0 0 15c0,0.54 0.13,0.96 0.39,1.26 0.26,0.3 0.63,0.45 1.11,0.45 0.41,0 0.75,-0.09 1,-0.28 0.25,-0.19 0.51,-0.49 0.78,-0.9l8.41 -13.38c0.11,-0.16 0.18,-0.27 0.24,-0.31 0.05,-0.04 0.08,-0.06 0.11,-0.06 0.1,0 0.15,0.04 0.15,0.12 0,0.07 0,0.15 0,0.25l0 14.37 1.62 0z"/>
  <path id="50" class="fil7" d="M658.63 170.44c0.03,-0.04 0.06,-0.1 0.1,-0.17 0.04,-0.07 0.08,-0.11 0.12,-0.11 0.06,0 0.1,0.03 0.11,0.08 0.01,0.05 0.02,0.1 0.02,0.14l0 14.49 1.62 0 0 -14.99c0,-1.14 -0.52,-1.71 -1.56,-1.71 -0.44,0 -0.77,0.09 -1,0.28 -0.23,0.18 -0.42,0.46 -0.59,0.84l-5.52 13.28c-0.16,0.37 -0.28,0.56 -0.34,0.56 -0.06,0 -0.18,-0.19 -0.34,-0.56l-5.52 -13.28c-0.17,-0.38 -0.37,-0.66 -0.59,-0.84 -0.23,-0.19 -0.57,-0.28 -1,-0.28 -1.04,0 -1.56,0.57 -1.56,1.71l0 14.99 1.62 0 0 -14.49c0,-0.04 0.01,-0.09 0.02,-0.14 0.01,-0.05 0.04,-0.08 0.11,-0.08 0.04,0 0.08,0.04 0.12,0.11 0.04,0.07 0.07,0.13 0.09,0.17l5.55 13.44c0.17,0.41 0.4,0.71 0.7,0.9 0.3,0.19 0.57,0.28 0.8,0.28 0.23,0 0.49,-0.09 0.79,-0.28 0.31,-0.19 0.54,-0.49 0.71,-0.9l5.54 -13.44z"/>
  <path id="51" class="fil7" d="M672.88 168.17c-0.52,0 -1.06,0.02 -1.61,0.06 -0.55,0.04 -1.09,0.12 -1.62,0.25 -0.53,0.12 -1.04,0.3 -1.54,0.54 -0.5,0.24 -0.95,0.56 -1.34,0.95 -0.46,0.44 -0.82,0.94 -1.09,1.52 -0.27,0.57 -0.48,1.15 -0.63,1.76 -0.14,0.6 -0.23,1.2 -0.28,1.8 -0.04,0.61 -0.06,1.16 -0.06,1.66 0,0.48 0.02,0.99 0.05,1.56 0.03,0.56 0.12,1.12 0.26,1.69 0.15,0.58 0.36,1.14 0.63,1.7 0.27,0.56 0.64,1.07 1.12,1.53 0.46,0.44 0.96,0.78 1.51,1.03 0.55,0.25 1.1,0.44 1.65,0.56 0.55,0.13 1.09,0.2 1.61,0.23 0.52,0.04 0.96,0.05 1.34,0.05 0.37,0 0.82,-0.01 1.32,-0.05 0.51,-0.03 1.05,-0.1 1.61,-0.23 0.56,-0.12 1.12,-0.31 1.67,-0.56 0.55,-0.25 1.05,-0.59 1.51,-1.03 0.52,-0.52 0.99,-1.31 1.42,-2.38 0.42,-1.07 0.64,-2.5 0.64,-4.29 0,-0.46 -0.02,-0.97 -0.07,-1.54 -0.04,-0.57 -0.13,-1.16 -0.28,-1.75 -0.14,-0.59 -0.35,-1.17 -0.62,-1.74 -0.27,-0.58 -0.63,-1.08 -1.09,-1.52 -0.42,-0.39 -0.87,-0.71 -1.36,-0.95 -0.48,-0.24 -0.99,-0.42 -1.52,-0.54 -0.53,-0.13 -1.07,-0.21 -1.63,-0.25 -0.55,-0.04 -1.08,-0.06 -1.6,-0.06zm-6.42 8.51c0,-0.36 0,-0.77 0.01,-1.26 0.01,-0.49 0.06,-0.98 0.14,-1.49 0.09,-0.51 0.22,-1 0.39,-1.47 0.18,-0.48 0.43,-0.91 0.77,-1.28 0.31,-0.35 0.68,-0.62 1.1,-0.82 0.43,-0.19 0.88,-0.35 1.34,-0.45 0.47,-0.1 0.93,-0.17 1.39,-0.2 0.46,-0.03 0.88,-0.05 1.28,-0.05 0.39,0 0.82,0.02 1.28,0.05 0.45,0.03 0.92,0.1 1.38,0.2 0.47,0.1 0.92,0.26 1.35,0.45 0.42,0.2 0.79,0.47 1.1,0.82 0.33,0.37 0.59,0.8 0.76,1.28 0.18,0.47 0.31,0.96 0.39,1.47 0.09,0.51 0.13,1 0.15,1.49 0.01,0.49 0.01,0.9 0.01,1.26 0,0.33 0,0.72 -0.01,1.18 -0.02,0.45 -0.06,0.92 -0.15,1.41 -0.08,0.48 -0.21,0.96 -0.4,1.44 -0.19,0.48 -0.45,0.9 -0.78,1.27 -0.33,0.35 -0.7,0.64 -1.11,0.86 -0.4,0.21 -0.83,0.37 -1.29,0.48 -0.46,0.1 -0.91,0.17 -1.37,0.2 -0.46,0.03 -0.89,0.05 -1.31,0.05 -0.42,0 -0.85,-0.02 -1.31,-0.05 -0.46,-0.03 -0.91,-0.1 -1.37,-0.2 -0.46,-0.11 -0.89,-0.27 -1.3,-0.48 -0.4,-0.22 -0.77,-0.51 -1.1,-0.86 -0.35,-0.37 -0.62,-0.79 -0.8,-1.27 -0.17,-0.48 -0.3,-0.96 -0.39,-1.44 -0.08,-0.49 -0.13,-0.96 -0.14,-1.41 -0.01,-0.46 -0.01,-0.85 -0.01,-1.18z"/>
  <path id="52" class="fil7" d="M697.47 184.87l0 -1.49 -5.79 0c-0.38,0 -0.8,-0.03 -1.27,-0.08 -0.47,-0.05 -0.93,-0.16 -1.38,-0.33 -0.46,-0.16 -0.88,-0.41 -1.27,-0.74 -0.38,-0.33 -0.7,-0.76 -0.95,-1.3 -0.1,-0.25 -0.2,-0.54 -0.28,-0.87 -0.08,-0.34 -0.14,-0.67 -0.19,-1.03 -0.04,-0.35 -0.07,-0.7 -0.09,-1.03 -0.02,-0.35 -0.03,-0.66 -0.03,-0.95 0,-0.25 0,-0.55 0.02,-0.89 0.01,-0.34 0.03,-0.68 0.06,-1.04 0.03,-0.35 0.07,-0.69 0.11,-1.04 0.04,-0.33 0.09,-0.63 0.15,-0.88 0.31,-1.16 0.91,-2.01 1.8,-2.55 0.88,-0.53 1.87,-0.8 2.97,-0.8l5.77 0 0 -1.5 -5.58 0c-1.29,0 -2.35,0.19 -3.18,0.56 -0.83,0.38 -1.49,0.8 -1.96,1.28 -0.42,0.44 -0.75,0.93 -1,1.47 -0.25,0.54 -0.44,1.1 -0.56,1.68 -0.13,0.58 -0.21,1.17 -0.24,1.76 -0.03,0.59 -0.04,1.17 -0.04,1.73 0,0.48 0.01,0.97 0.03,1.48 0.02,0.51 0.08,1.03 0.17,1.54 0.09,0.53 0.24,1.03 0.44,1.53 0.19,0.5 0.47,0.97 0.82,1.41 0.19,0.22 0.42,0.46 0.7,0.7 0.28,0.24 0.62,0.46 1.02,0.67 0.39,0.21 0.85,0.38 1.37,0.51 0.52,0.14 1.11,0.2 1.77,0.2l6.61 0z"/>
  <polygon id="53" class="fil7" points="707.57,184.87 707.57,169.85 713.81,169.85 713.81,168.35 699.72,168.35 699.72,169.85 705.95,169.85 705.95,184.87 "/>
  <path id="54" class="fil7" d="M730.48 184.87l0 -14.8c0,-0.13 -0.01,-0.29 -0.03,-0.5 -0.02,-0.21 -0.08,-0.42 -0.17,-0.63 -0.09,-0.2 -0.23,-0.38 -0.42,-0.54 -0.19,-0.16 -0.46,-0.23 -0.81,-0.23 -0.73,0 -1.3,0.33 -1.72,0.99l-8.5 13.56c-0.15,0.27 -0.26,0.41 -0.35,0.41 -0.1,0 -0.16,-0.05 -0.17,-0.14 -0.01,-0.1 -0.01,-0.18 -0.01,-0.27l0 -14.37 -1.63 0 0 15c0,0.54 0.13,0.96 0.39,1.26 0.26,0.3 0.63,0.45 1.11,0.45 0.42,0 0.75,-0.09 1,-0.28 0.25,-0.19 0.51,-0.49 0.78,-0.9l8.41 -13.38c0.11,-0.16 0.19,-0.27 0.24,-0.31 0.05,-0.04 0.09,-0.06 0.11,-0.06 0.1,0 0.15,0.04 0.15,0.12 0,0.07 0,0.15 0,0.25l0 14.37 1.62 0z"/>
  <polygon id="55" class="fil7" points="523.72,163.05 519.61,163.05 519.61,172 508.26,172 508.26,163.05 504.15,163.05 504.15,184.87 508.26,184.87 508.26,175.27 519.61,175.27 519.61,184.87 523.72,184.87 "/>
 </g>
</svg>
