<?xml version="1.0" encoding="UTF-8"?>
<!DOCTYPE svg PUBLIC "-//W3C//DTD SVG 1.1//EN" "http://www.w3.org/Graphics/SVG/1.1/DTD/svg11.dtd">
<!-- Creator: CorelDRAW X8 -->
<svg xmlns="http://www.w3.org/2000/svg" xml:space="preserve" width="70mm" height="19.02mm" version="1.1" shape-rendering="geometricPrecision" text-rendering="geometricPrecision" image-rendering="optimizeQuality" fill-rule="evenodd" clip-rule="evenodd"
viewBox="0 0 7000 1902"
 xmlns:xlink="http://www.w3.org/1999/xlink">
 <g id="Layer_x0020_1">
  <metadata id="CorelCorpID_0Corel-Layer"/>
  <g id="_996601280">
   <path fill="#EF7F1A" fill-rule="nonzero" d="M601 421c-190,6 -490,554 -416,977 -54,-80 -87,-192 -90,-203 -22,-78 -34,-158 -34,-244 0,-492 399,-855 891,-855 1078,60 643,1266 517,1266 -106,0 135,-935 -140,-939 -263,3 -488,936 -588,939 -94,-4 128,-949 -140,-941zm-601 530c0,525 426,951 952,951 526,0 952,-426 952,-951 0,-525 -426,-951 -952,-951 -526,0 -952,426 -952,951zm952 855c-998,-43 -572,-1262 -405,-1268 137,6 -121,937 140,941 243,4 492,-936 588,-940 122,6 -107,936 140,940 174,2 419,-519 365,-854 43,80 57,226 58,236 53,522 -355,968 -886,945z"/>
   <path fill="#EF7F1A" fill-rule="nonzero" d="M3003 807l0 -663c0,-10 0,-23 -2,-40 -1,-16 -6,-32 -14,-47 -7,-15 -19,-28 -36,-40 -17,-11 -40,-17 -70,-17 -27,0 -51,6 -71,18 -20,13 -41,36 -62,71l-322 526c-4,7 -7,12 -11,18 -3,5 -6,8 -11,8 -8,0 -12,-4 -12,-12 -1,-7 -2,-16 -2,-25l5 -595 -150 0 0 670c0,12 0,25 2,41 1,15 6,30 13,45 7,14 19,26 35,36 16,10 38,15 67,15 20,0 38,-2 51,-7 14,-4 25,-10 34,-18 9,-7 17,-15 24,-23 6,-9 12,-18 17,-27l329 -530c6,-9 11,-18 16,-25 4,-8 9,-11 13,-11 5,0 9,2 10,8 1,6 2,12 2,18l-6 606 151 0z"/>
   <polygon id="1" fill="#EF7F1A" fill-rule="nonzero" points="3856,9 3705,9 3705,336 3291,336 3291,9 3140,9 3140,807 3291,807 3291,456 3705,456 3705,807 3856,807 "/>
   <path id="2" fill="#616161" fill-rule="nonzero" d="M4143 464l305 0c25,0 43,4 55,12 13,8 22,15 26,21 8,11 12,24 14,40 2,16 3,29 3,41 0,13 -1,27 -4,42 -2,15 -8,28 -16,39 -12,13 -26,22 -44,24 -17,3 -32,4 -44,4l-237 0c-6,0 -14,0 -25,-1 -10,-1 -18,-4 -24,-11 -3,-4 -5,-10 -7,-17 -1,-7 -2,-17 -2,-30l0 -164zm0 -291c0,-4 0,-10 2,-17 1,-7 4,-13 8,-18 5,-5 10,-8 16,-8 6,-1 12,-1 18,-1l246 0c13,0 26,1 39,2 13,2 25,8 35,18 13,13 21,27 23,44 3,17 4,31 4,42 0,27 -2,47 -7,58 -4,11 -7,19 -10,23 -11,14 -24,23 -38,25 -14,2 -29,3 -44,3l-292 0 0 -171zm433 231l0 -5c15,-2 28,-5 40,-11 12,-7 24,-16 35,-30 17,-21 28,-43 32,-64 4,-22 6,-44 6,-66 0,-13 -1,-27 -2,-42 -1,-15 -4,-30 -7,-46 -3,-15 -8,-30 -15,-44 -6,-15 -15,-27 -27,-39 -10,-10 -22,-19 -34,-25 -12,-7 -24,-12 -37,-15 -13,-4 -26,-6 -38,-7 -13,0 -25,-1 -35,-1l-392 0c-13,0 -27,2 -43,6 -15,4 -29,13 -42,27 -8,11 -14,24 -18,38 -4,14 -7,29 -7,44l0 570c0,23 4,41 11,54 7,13 13,22 17,27 16,18 33,28 51,30 18,1 37,2 57,2l382 0c12,0 24,0 37,-1 12,0 25,-2 37,-5 12,-4 24,-9 36,-16 12,-7 24,-16 36,-29 22,-26 36,-54 39,-84 4,-29 6,-57 6,-84 0,-11 0,-23 0,-35 -1,-12 -2,-25 -4,-37 -3,-13 -6,-25 -12,-37 -5,-11 -12,-23 -21,-33 -10,-11 -23,-20 -37,-28 -15,-8 -32,-13 -51,-14z"/>
   <path id="3" fill="#616161" fill-rule="nonzero" d="M5454 807l0 -120 -426 0c-12,0 -22,0 -31,-1 -9,-2 -16,-4 -20,-9 -8,-6 -12,-16 -12,-31l0 -187 473 0 0 -119 -473 0 0 -161c0,-6 1,-12 2,-19 1,-7 5,-14 11,-20 6,-5 13,-8 20,-9 7,-1 14,-2 21,-2l431 0 0 -120 -512 0c-15,0 -32,2 -49,5 -18,3 -34,12 -47,26 -8,10 -15,22 -20,37 -4,15 -7,30 -7,46l0 565c0,16 2,32 5,49 3,17 11,32 25,45 13,13 27,20 42,22 15,2 31,3 49,3l518 0z"/>
   <path id="4" fill="#616161" fill-rule="nonzero" d="M5533 807l490 0c26,0 52,-3 76,-9 25,-6 47,-22 66,-48 17,-21 28,-45 33,-71 5,-27 7,-52 7,-77 0,-9 0,-20 -2,-33 -1,-13 -3,-27 -6,-41 -4,-14 -9,-28 -16,-42 -7,-14 -16,-27 -28,-38 -12,-11 -28,-22 -46,-31 -19,-9 -42,-18 -68,-26l-292 -92c-32,-11 -52,-24 -61,-40 -9,-16 -13,-33 -13,-50 0,-8 1,-18 3,-30 2,-12 8,-23 18,-32 9,-8 19,-13 30,-15 11,-2 22,-3 32,-3l408 0 0 -120 -459 0c-20,0 -41,3 -65,8 -24,5 -46,17 -66,37 -23,21 -37,45 -43,72 -5,26 -8,52 -8,76 0,11 0,23 1,36 1,13 2,26 6,40 3,13 7,26 12,39 5,13 13,25 22,35 7,10 16,18 26,25 10,7 19,13 28,18 9,5 18,9 25,11 7,3 12,5 15,6l315 99c17,5 31,11 41,18 11,8 18,15 24,23 5,8 8,16 10,25 1,8 2,16 2,24 0,6 0,15 -1,25 -2,10 -5,19 -10,28 -5,9 -12,17 -22,24 -10,6 -24,9 -42,9l-442 0 0 120z"/>
   <polygon id="5" fill="#616161" fill-rule="nonzero" points="6667,807 6667,129 6979,129 6979,9 6205,9 6205,129 6516,129 6516,807 "/>
   <path id="6" fill="#EF7F1A" fill-rule="nonzero" d="M2611 1123c-23,0 -48,1 -74,2 -27,0 -54,3 -80,8 -27,5 -53,13 -79,24 -26,11 -49,27 -70,47 -21,19 -38,42 -49,67 -12,25 -20,51 -26,78 -6,27 -10,55 -11,83 -2,28 -2,55 -2,81 0,21 0,46 1,72 1,27 5,55 10,82 6,28 14,56 26,83 12,26 29,50 51,71 21,21 44,36 70,47 26,11 52,19 79,24 27,5 54,8 81,9 26,0 51,1 73,1 22,0 46,-1 73,-1 27,-1 54,-4 81,-9 27,-5 53,-13 79,-24 26,-11 49,-26 70,-47 20,-19 35,-41 47,-66 12,-25 20,-52 26,-79 6,-28 10,-56 11,-84 2,-27 3,-54 3,-79 0,-25 -1,-51 -2,-80 -1,-28 -5,-56 -11,-83 -7,-28 -15,-54 -27,-80 -12,-25 -27,-47 -47,-66 -21,-20 -44,-36 -70,-47 -26,-11 -52,-19 -79,-24 -27,-5 -54,-8 -81,-8 -26,-1 -51,-2 -73,-2zm-244 390c0,-59 5,-105 13,-137 8,-32 20,-58 34,-76 23,-28 51,-45 85,-52 34,-7 71,-10 111,-10 39,0 76,3 111,10 35,7 63,24 86,52 5,7 11,16 17,27 6,11 11,24 15,41 5,17 8,37 11,60 2,24 3,52 3,85 0,30 -1,57 -3,80 -3,23 -6,43 -11,60 -4,16 -9,31 -14,42 -6,12 -12,22 -18,30 -12,14 -25,25 -40,34 -14,8 -30,14 -47,19 -17,4 -35,7 -53,8 -19,1 -38,2 -57,2 -20,0 -39,-1 -58,-2 -19,-1 -36,-4 -53,-8 -17,-5 -32,-11 -47,-19 -14,-9 -27,-20 -38,-34 -6,-8 -12,-18 -18,-29 -5,-11 -10,-26 -14,-43 -5,-17 -8,-37 -11,-59 -2,-23 -4,-50 -4,-81z"/>
   <path id="7" fill="#EF7F1A" fill-rule="nonzero" d="M3901 1893l0 -114 -105 0 0 -647 -143 0 0 647 -341 0c-6,0 -13,-1 -22,-2 -9,-1 -16,-4 -21,-10 -5,-6 -7,-13 -7,-23 1,-9 1,-18 1,-25l0 -587 -144 0 0 650c0,15 2,30 6,46 3,17 12,31 27,43 13,11 27,17 42,19 15,2 31,3 47,3l660 0z"/>
   <path id="8" fill="#EF7F1A" fill-rule="nonzero" d="M4574 1893l0 -114 -406 0c-12,0 -22,-1 -30,-2 -9,-1 -15,-4 -19,-8 -7,-6 -11,-15 -11,-29l0 -178 451 0 0 -115 -451 0 0 -153c0,-6 0,-12 2,-18 1,-7 4,-13 10,-19 6,-5 12,-8 19,-9 7,-1 13,-2 20,-2l411 0 0 -114 -488 0c-15,0 -30,2 -47,5 -17,2 -32,11 -44,25 -8,9 -15,21 -19,35 -5,14 -8,29 -8,44l0 539c0,14 2,30 5,46 3,16 11,31 24,43 12,12 25,19 40,21 14,2 30,3 47,3l494 0z"/>
   <polygon id="9" fill="#EF7F1A" fill-rule="nonzero" points="5364,1132 5221,1132 5221,1444 4825,1444 4825,1132 4681,1132 4681,1893 4825,1893 4825,1558 5221,1558 5221,1893 5364,1893 "/>
   <path id="10" fill="#EF7F1A" fill-rule="nonzero" d="M6232 1893l-360 -321c-10,-9 -20,-19 -30,-30 -9,-11 -14,-25 -14,-41 0,-13 3,-24 11,-32 8,-9 16,-17 25,-25l328 -312 -177 0 -288 285c-11,10 -19,23 -27,39 -7,16 -10,31 -10,46 0,13 3,28 9,46 7,18 20,35 38,53l313 292 182 0zm-728 0l143 0 0 -761 -143 0 0 761z"/>
   <path id="11" fill="#EF7F1A" fill-rule="nonzero" d="M6176 1893l151 0 77 -192 367 0 78 192 151 0 -287 -684c-14,-32 -30,-54 -48,-66 -19,-13 -44,-20 -77,-20 -34,0 -60,7 -78,20 -17,12 -33,34 -47,66l-287 684zm390 -604c3,-6 5,-13 9,-20 4,-8 8,-12 13,-12 5,0 10,4 13,12 4,7 7,14 9,20l124 309 -293 0 125 -309z"/>
  </g>
 </g>
</svg>
